<?xml version="1.0"?>
<svg xmlns:rdf="http://www.w3.org/1999/02/22-rdf-syntax-ns#" xmlns="http://www.w3.org/2000/svg" xmlns:cc="http://web.resource.org/cc/" xmlns:dc="http://purl.org/dc/elements/1.1/" xmlns:svg="http://www.w3.org/2000/svg" id="svg2" viewBox="0 0 694.48 570" version="1.0">
  <g id="layer1" transform="translate(-28.022 -340.13)">
    <g id="g10397">
      <path id="path10395" d="m728.09 842.3a360.98 79.539 0 1 1 -721.97 0 360.98 79.539 0 1 1 721.97 0z" transform="matrix(.96054 0 0 .92346 22.645 58.347)" stroke="#000" stroke-width="1.061" fill="#d7e3f4"/>
      <g id="g10356" transform="matrix(1.4824 0 0 1.6381 -185.26 -300.51)">
        <path id="rect9061" d="m196.93 577.11h350.54c0.67 0 1.21 0.53 1.21 1.2 0 0 1.24 88.33 0 121.18-0.01 0.16-62.71 13.77-63.22 13.84-22.56 3.19-121.49 5.2-131.21 5.14-10.1-0.06-158.52-15.21-158.52-15.88-0.3-32.87 0-124.28 0-124.28 0-0.67 0.53-1.2 1.2-1.2z" stroke="#000" stroke-width="3.6363" fill="#fc0"/>
        <path id="path9068" d="m198.62 578.79h351.24c0.67 0 1.21-3.66 1.21-3.23 0 0 1.25 56.92 0 78.09 0 0.1-62.84 14.88-63.34 14.92-22.61 2.05-121.74 5.35-131.48 5.31-10.11-0.04-158.84-17.8-158.84-18.23-0.3-21.18 0-76.09 0-76.09 0-0.43 0.54-0.77 1.21-0.77z" stroke="#000" stroke-width="2.922" fill="#fd5"/>
        <path id="path9065" d="m532.3 547.6a176.41 56.085 0 1 1 -352.83 0 176.41 56.085 0 1 1 352.83 0z" transform="matrix(1.0008 0 0 .85702 18.075 106.85)" stroke="#000" stroke-width="3.761" fill="#ff2a2a"/>
        <path id="path9270" d="m224.82 469.81h14.81v101.15h-14.81v-101.15z" stroke="#000" stroke-width="1.365" fill="#0cf"/>
        <rect id="rect9272" height="7.0851" width="1.6365" stroke="#000" y="462.8" x="230.82" stroke-width="1.365" fill="#ff0"/>
        <path id="path9274" d="m242.93 442.89c0 11.55-4.91 20.92-10.96 20.92s-10.97-9.37-10.97-20.92 13.43-34.75 19.48-34.75 2.45 23.2 2.45 34.75z" stroke="#000" stroke-width="1.365" fill="#ff0"/>
        <path id="path9276" d="m243.27 430.65c0 8.43-3.5 15.28-8.99 15.28-5.5 0-8.04-6.85-8.04-15.28s8.96-22.17 14.46-22.17 2.57 13.74 2.57 22.17z" fill="#ff2a2a"/>
        <path id="path9373" d="m367.58 508.48h14.81v101.15h-14.81v-101.15z" stroke="#000" stroke-width="1.365" fill="#ff0"/>
        <rect id="rect9375" height="7.0851" width="1.6365" stroke="#000" y="501.47" x="373.58" stroke-width="1.365" fill="#ff0"/>
        <path id="path9377" d="m385.69 481.56c0 11.55-4.91 20.92-10.96 20.92s-10.96-9.37-10.96-20.92c0-11.54 13.42-34.75 19.47-34.75s2.45 23.21 2.45 34.75z" stroke="#000" stroke-width="1.365" fill="#ff0"/>
        <path id="path9379" d="m386.04 469.32c0 8.44-3.5 15.28-9 15.28s-8.04-6.84-8.04-15.28c0-8.43 8.97-22.17 14.47-22.17 5.49 0 2.57 13.74 2.57 22.17z" fill="#ff2a2a"/>
        <path id="path9383" d="m498.11 471.77h14.81v101.15h-14.81v-101.15z" stroke="#000" stroke-width="1.365" fill="red"/>
        <rect id="rect9385" height="7.0851" width="1.6365" stroke="#000" y="464.76" x="504.11" stroke-width="1.365" fill="#ff0"/>
        <path id="path9387" d="m516.22 444.85c0 11.55-4.91 20.92-10.96 20.92-6.06 0-10.97-9.37-10.97-20.92 0-11.54 13.42-34.75 19.48-34.75 6.05 0 2.45 23.21 2.45 34.75z" stroke="#000" stroke-width="1.365" fill="#ff0"/>
        <path id="path9389" d="m516.56 432.61c0 8.44-3.5 15.28-9 15.28s-8.03-6.84-8.03-15.28c0-8.43 8.96-22.17 14.46-22.17s2.57 13.74 2.57 22.17z" fill="#ff7f2a"/>
        <path id="path9393" d="m410.41 453.45h14.81v101.15h-14.81v-101.15z" stroke="#000" stroke-width="1.365" fill="#6f0"/>
        <rect id="rect9395" height="7.0851" width="1.6365" stroke="#000" y="446.44" x="416.41" stroke-width="1.365" fill="#ff0"/>
        <path id="path9397" d="m428.52 426.54c0 11.54-4.91 20.91-10.96 20.91s-10.97-9.37-10.97-20.91c0-11.55 13.43-34.75 19.48-34.75s2.45 23.2 2.45 34.75z" stroke="#000" stroke-width="1.365" fill="#ff0"/>
        <path id="path9399" d="m428.86 414.3c0 8.43-3.49 15.27-8.99 15.27s-8.04-6.84-8.04-15.27 8.96-22.18 14.46-22.18 2.57 13.75 2.57 22.18z" fill="#ff7f2a"/>
        <path id="path9403" d="m318.63 453.41h14.81v101.15h-14.81v-101.15z" stroke="#000" stroke-width="1.365" fill="#ff80e5"/>
        <rect id="rect9405" height="7.0851" width="1.6365" stroke="#000" y="446.4" x="324.64" stroke-width="1.365" fill="#ff0"/>
        <path id="path9407" d="m336.75 426.5c0 11.54-4.91 20.91-10.97 20.91-6.05 0-10.96-9.37-10.96-20.91 0-11.55 13.42-34.75 19.47-34.75 6.06 0 2.46 23.2 2.46 34.75z" stroke="#000" stroke-width="1.365" fill="#ff0"/>
        <path id="path9409" d="m337.09 414.26c0 8.43-3.5 15.27-9 15.27s-8.03-6.84-8.03-15.27 8.96-22.18 14.46-22.18 2.57 13.75 2.57 22.18z" fill="#ff2a2a"/>
        <path id="path9413" d="m273.76 492.16h14.82v101.15h-14.82v-101.15z" stroke="#000" stroke-width="1.365" fill="#95f"/>
        <rect id="rect9415" height="7.0851" width="1.6365" stroke="#000" y="485.15" x="279.77" stroke-width="1.365" fill="#ff0"/>
        <path id="path9417" d="m291.88 465.25c0 11.54-4.91 20.91-10.96 20.91-6.06 0-10.97-9.37-10.97-20.91 0-11.55 13.42-34.75 19.47-34.75 6.06 0 2.46 23.2 2.46 34.75z" stroke="#000" stroke-width="1.365" fill="#ff0"/>
        <path id="path9419" d="m292.22 453.01c0 8.43-3.5 15.27-9 15.27s-8.03-6.84-8.03-15.27 8.96-22.18 14.46-22.18 2.57 13.75 2.57 22.18z" fill="#f60"/>
        <path id="path9423" d="m445.08 492.12h14.81v101.15h-14.81v-101.15z" stroke="#000" stroke-width="1.365" fill="#f60"/>
        <rect id="rect9425" height="7.0851" width="1.6365" stroke="#000" y="485.11" x="451.08" stroke-width="1.365" fill="#ff0"/>
        <path id="path9427" d="m463.19 465.21c0 11.54-4.91 20.92-10.96 20.92s-10.96-9.38-10.96-20.92c0-11.55 13.42-34.75 19.47-34.75s2.45 23.2 2.45 34.75z" stroke="#000" stroke-width="1.365" fill="#ff0"/>
        <path id="path9429" d="m463.54 452.97c0 8.43-3.5 15.27-9 15.27s-8.04-6.84-8.04-15.27 8.97-22.18 14.46-22.18c5.5 0 2.58 13.75 2.58 22.18z" fill="#ff2a2a"/>
        <path id="path9459" d="m124.74 511.57a7.9316 7.9316 0 1 1 -15.86 0 7.9316 7.9316 0 1 1 15.86 0z" transform="translate(106.72 121.14)" stroke="#000" stroke-width="1.061" fill="#80b3ff"/>
        <path id="path10346" d="m124.74 511.57a7.9316 7.9316 0 1 1 -15.86 0 7.9316 7.9316 0 1 1 15.86 0z" transform="translate(408.12 118.25)" stroke="#000" stroke-width="1.061" fill="#80b3ff"/>
        <path id="path10348" d="m124.74 511.57a7.9316 7.9316 0 1 1 -15.86 0 7.9316 7.9316 0 1 1 15.86 0z" transform="translate(351.16 134.12)" stroke="#000" stroke-width="1.061" fill="#80b3ff"/>
        <path id="path10350" d="m124.74 511.57a7.9316 7.9316 0 1 1 -15.86 0 7.9316 7.9316 0 1 1 15.86 0z" transform="translate(285.54 140.61)" stroke="#000" stroke-width="1.061" fill="#80b3ff"/>
        <path id="path10352" d="m124.74 511.57a7.9316 7.9316 0 1 1 -15.86 0 7.9316 7.9316 0 1 1 15.86 0z" transform="translate(227.85 137)" stroke="#000" stroke-width="1.061" fill="#80b3ff"/>
        <path id="path10354" d="m124.74 511.57a7.9316 7.9316 0 1 1 -15.86 0 7.9316 7.9316 0 1 1 15.86 0z" transform="translate(168.97 133.46)" stroke="#000" stroke-width="1.061" fill="#80b3ff"/>
      </g>
    </g>
  </g>
  <metadata>
    <rdf:RDF>
      <cc:Work>
        <dc:format>image/svg+xml</dc:format>
        <dc:type rdf:resource="http://purl.org/dc/dcmitype/StillImage"/>
        <cc:license rdf:resource="http://creativecommons.org/licenses/publicdomain/"/>
        <dc:publisher>
          <cc:Agent rdf:about="http://openclipart.org/">
            <dc:title>Openclipart</dc:title>
          </cc:Agent>
        </dc:publisher>
        <dc:title>cake</dc:title>
        <dc:date>2006-12-31T02:36:21</dc:date>
        <dc:description>birthday, birthday, cake, cake, candle, candle, cartoon, cartoon, clip art, clipart, contour, contour, food, food, image, media, party, party, png, public domain, red, red, svg, yellow, yellow, </dc:description>
        <dc:source>http://openclipart.org/detail/2566/cake-by-machovka</dc:source>
        <dc:creator>
          <cc:Agent>
            <dc:title>Machovka</dc:title>
          </cc:Agent>
        </dc:creator>
        <dc:subject>
          <rdf:Bag>
            <rdf:li>birthday</rdf:li>
            <rdf:li>cake</rdf:li>
            <rdf:li>candle</rdf:li>
            <rdf:li>cartoon</rdf:li>
            <rdf:li>clip art</rdf:li>
            <rdf:li>clipart</rdf:li>
            <rdf:li>contour</rdf:li>
            <rdf:li>food</rdf:li>
            <rdf:li>image</rdf:li>
            <rdf:li>media</rdf:li>
            <rdf:li>party</rdf:li>
            <rdf:li>png</rdf:li>
            <rdf:li>public domain</rdf:li>
            <rdf:li>red</rdf:li>
            <rdf:li>svg</rdf:li>
            <rdf:li>yellow</rdf:li>
          </rdf:Bag>
        </dc:subject>
      </cc:Work>
      <cc:License rdf:about="http://creativecommons.org/licenses/publicdomain/">
        <cc:permits rdf:resource="http://creativecommons.org/ns#Reproduction"/>
        <cc:permits rdf:resource="http://creativecommons.org/ns#Distribution"/>
        <cc:permits rdf:resource="http://creativecommons.org/ns#DerivativeWorks"/>
      </cc:License>
    </rdf:RDF>
  </metadata>
</svg>
