<?xml version="1.0"?>
<svg xmlns:rdf="http://www.w3.org/1999/02/22-rdf-syntax-ns#" xmlns="http://www.w3.org/2000/svg" xmlns:cc="http://creativecommons.org/ns#" xmlns:dc="http://purl.org/dc/elements/1.1/" xmlns:svg="http://www.w3.org/2000/svg" id="svg4827" viewBox="0 0 65.338 125.44" version="1.1">
  <title id="title5886">Simple Cellphone</title>
  <g id="layer1" transform="translate(208.05 -616.15)">
    <g id="g9763" stroke="#fff" transform="matrix(4.5142 0 0 4.5142 -1264.3 -4277.6)">
      <path id="path5667" d="m32.679 64.223v26.071" transform="matrix(.22152 0 0 .22152 233.98 1084.1)" stroke="#fff" stroke-linecap="square" stroke-width="55.3" fill="none"/>
      <g id="g9865" stroke-width="0">
        <path id="path9765" style="block-progression:tb;color:#000000;text-transform:none;text-indent:0" d="m245.06 1086v6h0.6875v-6h-0.6875z"/>
        <path id="path9871" style="block-progression:tb;color:#000000;text-transform:none;text-indent:0" d="m245.41 1085.2c-0.43374 0-0.78125 0.3788-0.78125 0.8125s0.34751 0.7813 0.78125 0.7813 0.78125-0.3476 0.78125-0.7813-0.34751-0.8125-0.78125-0.8125z"/>
      </g>
      <path id="rect9767" style="block-progression:tb;color:#000000;text-transform:none;text-indent:0" stroke-width="0" d="m236.6 1091.7c-1.4234 0-2.0108 0.5562-2.0108 1.9796v15.041c0 1.4234 0.58749 1.9796 2.0108 1.9796h9.2283c1.4234 0 2.0108-0.5562 2.0108-1.9796v-15.041c0-1.4234-0.58749-1.9796-2.0108-1.9796zm0 0.5h9.2283c1.1488 0 1.5108 0.3308 1.5108 1.4796v15.041c0 1.1488-0.36207 1.4796-1.5108 1.4796h-9.2283c-1.1488 0-1.4796-0.3308-1.4796-1.4796v-15.041c0-1.1488 0.33082-1.4796 1.4796-1.4796z"/>
      <path id="rect9769" style="block-progression:tb;color:#000000;text-transform:none;text-indent:0" stroke-width="0" d="m236.31 1093.4a0.18752 0.18752 0 0 0 -0.0312 0.031 0.18752 0.18752 0 0 0 -0.0312 0.031 0.18752 0.18752 0 0 0 -0.0312 0.031 0.18752 0.18752 0 0 0 0 0.031 0.18752 0.18752 0 0 0 -0.0312 0.031 0.18752 0.18752 0 0 0 0 0.031v5.875a0.18752 0.18752 0 0 0 0.0312 0.094 0.18752 0.18752 0 0 0 0.0625 0.062 0.18752 0.18752 0 0 0 0.0312 0.031 0.18752 0.18752 0 0 0 0.0312 0 0.18752 0.18752 0 0 0 0.0312 0h9.5312a0.18752 0.18752 0 0 0 0.0625 0 0.18752 0.18752 0 0 0 0.0312 0 0.18752 0.18752 0 0 0 0.0312 -0.031 0.18752 0.18752 0 0 0 0.0312 -0.031 0.18752 0.18752 0 0 0 0.0312 -0.031 0.18752 0.18752 0 0 0 0 -0.062 0.18752 0.18752 0 0 0 0 -0.031v-5.875a0.18752 0.18752 0 0 0 0 -0.031 0.18752 0.18752 0 0 0 0 -0.031 0.18752 0.18752 0 0 0 -0.0312 -0.062 0.18752 0.18752 0 0 0 -0.0312 -0.031 0.18752 0.18752 0 0 0 -0.0937 -0.031 0.18752 0.18752 0 0 0 -0.0312 0h-9.5312a0.18752 0.18752 0 0 0 -0.0312 0 0.18752 0.18752 0 0 0 -0.0312 0zm0.25 0.375h9.1562v5.5h-9.1562v-5.5z"/>
      <path id="rect9771" style="block-progression:tb;color:#000000;text-transform:none;text-indent:0" stroke-width="0" d="m236.25 1101.1a0.11223 0.11223 0 0 0 0 0.031 0.11223 0.11223 0 0 0 -0.0312 0.031 0.11223 0.11223 0 0 0 0 0.031v1.5937a0.11223 0.11223 0 0 0 0 0.031 0.11223 0.11223 0 0 0 0 0.031 0.11223 0.11223 0 0 0 0.0312 0.031 0.11223 0.11223 0 0 0 0.0312 0 0.11223 0.11223 0 0 0 0.0312 0.031h2.875a0.11223 0.11223 0 0 0 0.0312 -0.031 0.11223 0.11223 0 0 0 0.0312 0 0.11223 0.11223 0 0 0 0.0312 -0.031 0.11223 0.11223 0 0 0 0 -0.031 0.11223 0.11223 0 0 0 0 -0.031v-1.5937a0.11223 0.11223 0 0 0 0 -0.031 0.11223 0.11223 0 0 0 -0.0312 -0.031 0.11223 0.11223 0 0 0 -0.0312 -0.031 0.11223 0.11223 0 0 0 -0.0312 0h-2.875a0.11223 0.11223 0 0 0 -0.0312 0 0.11223 0.11223 0 0 0 -0.0312 0zm0.1875 0.2187h2.625v1.375h-2.625v-1.375z"/>
      <path id="rect9773" style="block-progression:tb;color:#000000;text-transform:none;text-indent:0" stroke-width="0" d="m239.66 1101.1a0.11223 0.11223 0 0 0 0 0.031 0.11223 0.11223 0 0 0 -0.0312 0.031 0.11223 0.11223 0 0 0 0 0.031v1.5937a0.11223 0.11223 0 0 0 0 0.031 0.11223 0.11223 0 0 0 0 0.031 0.11223 0.11223 0 0 0 0.0312 0.031 0.11223 0.11223 0 0 0 0.0312 0 0.11223 0.11223 0 0 0 0.0312 0.031h2.875a0.11223 0.11223 0 0 0 0.0312 -0.031 0.11223 0.11223 0 0 0 0.0312 0 0.11223 0.11223 0 0 0 0.0312 -0.031 0.11223 0.11223 0 0 0 0 -0.031 0.11223 0.11223 0 0 0 0 -0.031v-1.5937a0.11223 0.11223 0 0 0 0 -0.031 0.11223 0.11223 0 0 0 -0.0312 -0.031 0.11223 0.11223 0 0 0 -0.0312 -0.031 0.11223 0.11223 0 0 0 -0.0312 0h-2.875a0.11223 0.11223 0 0 0 -0.0312 0 0.11223 0.11223 0 0 0 -0.0312 0zm0.1875 0.2187h2.625v1.375h-2.625v-1.375z"/>
      <path id="rect9775" style="block-progression:tb;color:#000000;text-transform:none;text-indent:0" stroke-width="0" d="m243.06 1101.1a0.11223 0.11223 0 0 0 -0.0312 0.031 0.11223 0.11223 0 0 0 0 0.031 0.11223 0.11223 0 0 0 -0.0312 0.031v1.5937a0.11223 0.11223 0 0 0 0.0312 0.063 0.11223 0.11223 0 0 0 0.0312 0.031 0.11223 0.11223 0 0 0 0.0312 0.031 0.11223 0.11223 0 0 0 0.0312 0h2.8438a0.11223 0.11223 0 0 0 0.0312 0 0.11223 0.11223 0 0 0 0.0312 -0.031 0.11223 0.11223 0 0 0 0.0312 0 0.11223 0.11223 0 0 0 0 -0.031 0.11223 0.11223 0 0 0 0.0312 -0.031 0.11223 0.11223 0 0 0 0 -0.031v-1.5937a0.11223 0.11223 0 0 0 0 -0.031 0.11223 0.11223 0 0 0 -0.0312 -0.031 0.11223 0.11223 0 0 0 -0.0312 -0.031 0.11223 0.11223 0 0 0 -0.0312 0 0.11223 0.11223 0 0 0 -0.0312 0h-2.8438a0.11223 0.11223 0 0 0 -0.0312 0 0.11223 0.11223 0 0 0 -0.0312 0zm0.1875 0.2187h2.625v1.375h-2.625v-1.375z"/>
      <path id="rect9777" style="block-progression:tb;color:#000000;text-transform:none;text-indent:0" stroke-width="0" d="m236.25 1103.1a0.11223 0.11223 0 0 0 0 0.031 0.11223 0.11223 0 0 0 -0.0312 0.031 0.11223 0.11223 0 0 0 0 0.031v1.5937a0.11223 0.11223 0 0 0 0 0.031 0.11223 0.11223 0 0 0 0 0.031 0.11223 0.11223 0 0 0 0.0312 0.031 0.11223 0.11223 0 0 0 0.0312 0 0.11223 0.11223 0 0 0 0.0312 0.031h2.875a0.11223 0.11223 0 0 0 0.0312 -0.031 0.11223 0.11223 0 0 0 0.0312 0 0.11223 0.11223 0 0 0 0.0312 -0.031 0.11223 0.11223 0 0 0 0 -0.031 0.11223 0.11223 0 0 0 0 -0.031v-1.5937a0.11223 0.11223 0 0 0 0 -0.031 0.11223 0.11223 0 0 0 -0.0312 -0.031 0.11223 0.11223 0 0 0 -0.0312 -0.031 0.11223 0.11223 0 0 0 -0.0312 0h-2.875a0.11223 0.11223 0 0 0 -0.0312 0 0.11223 0.11223 0 0 0 -0.0312 0zm0.1875 0.2187h2.625v1.375h-2.625v-1.375z"/>
      <path id="rect9779" style="block-progression:tb;color:#000000;text-transform:none;text-indent:0" stroke-width="0" d="m239.66 1103.1a0.11223 0.11223 0 0 0 0 0.031 0.11223 0.11223 0 0 0 -0.0312 0.031 0.11223 0.11223 0 0 0 0 0.031v1.5937a0.11223 0.11223 0 0 0 0 0.031 0.11223 0.11223 0 0 0 0 0.031 0.11223 0.11223 0 0 0 0.0312 0.031 0.11223 0.11223 0 0 0 0.0312 0 0.11223 0.11223 0 0 0 0.0312 0.031h2.875a0.11223 0.11223 0 0 0 0.0312 -0.031 0.11223 0.11223 0 0 0 0.0312 0 0.11223 0.11223 0 0 0 0.0312 -0.031 0.11223 0.11223 0 0 0 0 -0.031 0.11223 0.11223 0 0 0 0 -0.031v-1.5937a0.11223 0.11223 0 0 0 0 -0.031 0.11223 0.11223 0 0 0 -0.0312 -0.031 0.11223 0.11223 0 0 0 -0.0312 -0.031 0.11223 0.11223 0 0 0 -0.0312 0h-2.875a0.11223 0.11223 0 0 0 -0.0312 0 0.11223 0.11223 0 0 0 -0.0312 0zm0.1875 0.2187h2.625v1.375h-2.625v-1.375z"/>
      <path id="rect9781" style="block-progression:tb;color:#000000;text-transform:none;text-indent:0" stroke-width="0" d="m243.06 1103.1a0.11223 0.11223 0 0 0 -0.0312 0.031 0.11223 0.11223 0 0 0 0 0.031 0.11223 0.11223 0 0 0 -0.0312 0.031v1.5937a0.11223 0.11223 0 0 0 0.0312 0.063 0.11223 0.11223 0 0 0 0.0312 0.031 0.11223 0.11223 0 0 0 0.0312 0.031 0.11223 0.11223 0 0 0 0.0312 0h2.8438a0.11223 0.11223 0 0 0 0.0312 0 0.11223 0.11223 0 0 0 0.0312 -0.031 0.11223 0.11223 0 0 0 0.0312 0 0.11223 0.11223 0 0 0 0 -0.031 0.11223 0.11223 0 0 0 0.0312 -0.031 0.11223 0.11223 0 0 0 0 -0.031v-1.5937a0.11223 0.11223 0 0 0 0 -0.031 0.11223 0.11223 0 0 0 -0.0312 -0.031 0.11223 0.11223 0 0 0 -0.0312 -0.031 0.11223 0.11223 0 0 0 -0.0312 0 0.11223 0.11223 0 0 0 -0.0312 0h-2.8438a0.11223 0.11223 0 0 0 -0.0312 0 0.11223 0.11223 0 0 0 -0.0312 0zm0.1875 0.2187h2.625v1.375h-2.625v-1.375z"/>
      <path id="rect9783" style="block-progression:tb;color:#000000;text-transform:none;text-indent:0" stroke-width="0" d="m236.25 1105.1a0.11223 0.11223 0 0 0 0 0.031 0.11223 0.11223 0 0 0 -0.0312 0.031 0.11223 0.11223 0 0 0 0 0.031v1.5937a0.11223 0.11223 0 0 0 0 0.031 0.11223 0.11223 0 0 0 0 0.031 0.11223 0.11223 0 0 0 0.0312 0.031 0.11223 0.11223 0 0 0 0.0312 0 0.11223 0.11223 0 0 0 0.0312 0.031h2.875a0.11223 0.11223 0 0 0 0.0312 -0.031 0.11223 0.11223 0 0 0 0.0312 0 0.11223 0.11223 0 0 0 0.0312 -0.031 0.11223 0.11223 0 0 0 0 -0.031 0.11223 0.11223 0 0 0 0 -0.031v-1.5937a0.11223 0.11223 0 0 0 0 -0.031 0.11223 0.11223 0 0 0 -0.0312 -0.031 0.11223 0.11223 0 0 0 -0.0312 -0.031 0.11223 0.11223 0 0 0 -0.0312 0h-2.875a0.11223 0.11223 0 0 0 -0.0312 0 0.11223 0.11223 0 0 0 -0.0312 0zm0.1875 0.2187h2.625v1.375h-2.625v-1.375z"/>
      <path id="rect9785" style="block-progression:tb;color:#000000;text-transform:none;text-indent:0" stroke-width="0" d="m239.66 1105.1a0.11223 0.11223 0 0 0 0 0.031 0.11223 0.11223 0 0 0 -0.0312 0.031 0.11223 0.11223 0 0 0 0 0.031v1.5937a0.11223 0.11223 0 0 0 0 0.031 0.11223 0.11223 0 0 0 0 0.031 0.11223 0.11223 0 0 0 0.0312 0.031 0.11223 0.11223 0 0 0 0.0312 0 0.11223 0.11223 0 0 0 0.0312 0.031h2.875a0.11223 0.11223 0 0 0 0.0312 -0.031 0.11223 0.11223 0 0 0 0.0312 0 0.11223 0.11223 0 0 0 0.0312 -0.031 0.11223 0.11223 0 0 0 0 -0.031 0.11223 0.11223 0 0 0 0 -0.031v-1.5937a0.11223 0.11223 0 0 0 0 -0.031 0.11223 0.11223 0 0 0 -0.0312 -0.031 0.11223 0.11223 0 0 0 -0.0312 -0.031 0.11223 0.11223 0 0 0 -0.0312 0h-2.875a0.11223 0.11223 0 0 0 -0.0312 0 0.11223 0.11223 0 0 0 -0.0312 0zm0.1875 0.2187h2.625v1.375h-2.625v-1.375z"/>
      <path id="rect9787" style="block-progression:tb;color:#000000;text-transform:none;text-indent:0" stroke-width="0" d="m243.06 1105.1a0.11223 0.11223 0 0 0 -0.0312 0.031 0.11223 0.11223 0 0 0 0 0.031 0.11223 0.11223 0 0 0 -0.0312 0.031v1.5937a0.11223 0.11223 0 0 0 0.0312 0.063 0.11223 0.11223 0 0 0 0.0312 0.031 0.11223 0.11223 0 0 0 0.0312 0.031 0.11223 0.11223 0 0 0 0.0312 0h2.8438a0.11223 0.11223 0 0 0 0.0312 0 0.11223 0.11223 0 0 0 0.0312 -0.031 0.11223 0.11223 0 0 0 0.0312 0 0.11223 0.11223 0 0 0 0 -0.031 0.11223 0.11223 0 0 0 0.0312 -0.031 0.11223 0.11223 0 0 0 0 -0.031v-1.5937a0.11223 0.11223 0 0 0 0 -0.031 0.11223 0.11223 0 0 0 -0.0312 -0.031 0.11223 0.11223 0 0 0 -0.0312 -0.031 0.11223 0.11223 0 0 0 -0.0312 0 0.11223 0.11223 0 0 0 -0.0312 0h-2.8438a0.11223 0.11223 0 0 0 -0.0312 0 0.11223 0.11223 0 0 0 -0.0312 0zm0.1875 0.2187h2.625v1.375h-2.625v-1.375z"/>
      <path id="rect9789" style="block-progression:tb;color:#000000;text-transform:none;text-indent:0" stroke-width="0" d="m236.25 1107.1a0.11223 0.11223 0 0 0 0 0.031 0.11223 0.11223 0 0 0 -0.0312 0.031 0.11223 0.11223 0 0 0 0 0.031v1.5937a0.11223 0.11223 0 0 0 0 0.031 0.11223 0.11223 0 0 0 0 0.031 0.11223 0.11223 0 0 0 0.0312 0.031 0.11223 0.11223 0 0 0 0.0312 0 0.11223 0.11223 0 0 0 0.0312 0.031h2.875a0.11223 0.11223 0 0 0 0.0312 -0.031 0.11223 0.11223 0 0 0 0.0312 0 0.11223 0.11223 0 0 0 0.0312 -0.031 0.11223 0.11223 0 0 0 0 -0.031 0.11223 0.11223 0 0 0 0 -0.031v-1.5937a0.11223 0.11223 0 0 0 0 -0.031 0.11223 0.11223 0 0 0 -0.0312 -0.031 0.11223 0.11223 0 0 0 -0.0312 -0.031 0.11223 0.11223 0 0 0 -0.0312 0h-2.875a0.11223 0.11223 0 0 0 -0.0312 0 0.11223 0.11223 0 0 0 -0.0312 0zm0.1875 0.2187h2.625v1.375h-2.625v-1.375z"/>
      <path id="rect9791" style="block-progression:tb;color:#000000;text-transform:none;text-indent:0" stroke-width="0" d="m239.66 1107.1a0.11223 0.11223 0 0 0 0 0.031 0.11223 0.11223 0 0 0 -0.0312 0.031 0.11223 0.11223 0 0 0 0 0.031v1.5937a0.11223 0.11223 0 0 0 0 0.031 0.11223 0.11223 0 0 0 0 0.031 0.11223 0.11223 0 0 0 0.0312 0.031 0.11223 0.11223 0 0 0 0.0312 0 0.11223 0.11223 0 0 0 0.0312 0.031h2.875a0.11223 0.11223 0 0 0 0.0312 -0.031 0.11223 0.11223 0 0 0 0.0312 0 0.11223 0.11223 0 0 0 0.0312 -0.031 0.11223 0.11223 0 0 0 0 -0.031 0.11223 0.11223 0 0 0 0 -0.031v-1.5937a0.11223 0.11223 0 0 0 0 -0.031 0.11223 0.11223 0 0 0 -0.0312 -0.031 0.11223 0.11223 0 0 0 -0.0312 -0.031 0.11223 0.11223 0 0 0 -0.0312 0h-2.875a0.11223 0.11223 0 0 0 -0.0312 0 0.11223 0.11223 0 0 0 -0.0312 0zm0.1875 0.2187h2.625v1.375h-2.625v-1.375z"/>
      <path id="rect9793" style="block-progression:tb;color:#000000;text-transform:none;text-indent:0" stroke-width="0" d="m243.06 1107.1a0.11223 0.11223 0 0 0 -0.0312 0.031 0.11223 0.11223 0 0 0 0 0.031 0.11223 0.11223 0 0 0 -0.0312 0.031v1.5937a0.11223 0.11223 0 0 0 0.0312 0.063 0.11223 0.11223 0 0 0 0.0312 0.031 0.11223 0.11223 0 0 0 0.0312 0.031 0.11223 0.11223 0 0 0 0.0312 0h2.8438a0.11223 0.11223 0 0 0 0.0312 0 0.11223 0.11223 0 0 0 0.0312 -0.031 0.11223 0.11223 0 0 0 0.0312 0 0.11223 0.11223 0 0 0 0 -0.031 0.11223 0.11223 0 0 0 0.0312 -0.031 0.11223 0.11223 0 0 0 0 -0.031v-1.5937a0.11223 0.11223 0 0 0 0 -0.031 0.11223 0.11223 0 0 0 -0.0312 -0.031 0.11223 0.11223 0 0 0 -0.0312 -0.031 0.11223 0.11223 0 0 0 -0.0312 0 0.11223 0.11223 0 0 0 -0.0312 0h-2.8438a0.11223 0.11223 0 0 0 -0.0312 0 0.11223 0.11223 0 0 0 -0.0312 0zm0.1875 0.2187h2.625v1.375h-2.625v-1.375z"/>
      <g id="g5858">
        <g id="text5669" transform="matrix(.22152 0 0 .22152 280.07 947.58)">
          <path id="path5724" d="m-192.4 695.59c0-0.08 0.016-0.14133 0.048-0.184 0.032-0.048 0.0613-0.0773 0.088-0.088 0.032-0.0107 0.0827-0.0187 0.152-0.024 0.0747-0.0107 0.12267-0.0187 0.144-0.024 0.32534-0.08 0.58667-0.32533 0.784-0.736 0.064-0.144 0.15733-0.216 0.28-0.216 0.18133 0 0.272 0.104 0.272 0.312v4.04h0.744c0.21333 0 0.31467 0.0987 0.304 0.296 0 0.20267-0.0987 0.304-0.296 0.304h-2.208c-0.0907-0.005-0.16-0.0347-0.208-0.088-0.0427-0.0587-0.064-0.128-0.064-0.208 0-0.20267 0.104-0.304 0.312-0.304h0.744v-3.08c-0.272 0.20267-0.53866 0.304-0.8 0.304-0.19733 0-0.296-0.10133-0.296-0.304"/>
        </g>
        <g id="text5673" transform="matrix(.22152 0 0 .22152 280.07 947.58)">
          <path id="path5721" d="m-177.29 698.98c0-0.11733 0.0453-0.216 0.136-0.296 0.16-0.13333 0.34933-0.29067 0.568-0.472 0.224-0.18667 0.392-0.32533 0.504-0.416 0.11733-0.096 0.25333-0.21067 0.408-0.344 0.16-0.13333 0.27733-0.23466 0.352-0.304 0.08-0.0747 0.168-0.16266 0.264-0.264 0.10133-0.10666 0.17333-0.192 0.216-0.256 0.0427-0.0693 0.0853-0.14666 0.128-0.232 0.048-0.0853 0.0773-0.16533 0.088-0.24 0.016-0.08 0.024-0.16266 0.024-0.248 0-0.32-0.128-0.56533-0.384-0.736-0.25067-0.17066-0.536-0.256-0.856-0.256-0.23467 0-0.41867 0.0747-0.552 0.224-0.13334 0.144-0.208 0.30667-0.224 0.488 0 0.0373-0.003 0.0773-0.008 0.12-0.005 0.0373-0.0373 0.0907-0.096 0.16-0.0533 0.064-0.13067 0.096-0.232 0.096-0.0853 0-0.16267-0.0267-0.232-0.08-0.0693-0.0587-0.104-0.15466-0.104-0.288 0-0.33066 0.14666-0.632 0.44-0.904 0.29333-0.27733 0.672-0.416 1.136-0.416 0.50666 0 0.93066 0.14667 1.272 0.44 0.34133 0.29334 0.51199 0.67467 0.512 1.144-0.00001 0.144-0.016 0.28-0.048 0.408-0.0267 0.12267-0.0853 0.25334-0.176 0.392-0.0853 0.13334-0.16267 0.248-0.232 0.344-0.064 0.0907-0.184 0.21334-0.36 0.368-0.17067 0.15467-0.30667 0.27467-0.408 0.36-0.096 0.0853-0.26934 0.22933-0.52 0.432-0.25067 0.20267-0.44 0.35733-0.568 0.464h1.64v-0.072c0-0.13333 0.0293-0.21867 0.088-0.256 0.0587-0.0373 0.136-0.056 0.232-0.056h0.016c0.0693 0 0.12266 0.005 0.16 0.016 0.0373 0.005 0.0747 0.032 0.112 0.08 0.0427 0.048 0.064 0.12 0.064 0.216v0.328c-0.00001 0.064-0.003 0.11467-0.008 0.152-0.005 0.0373-0.0347 0.08-0.088 0.128-0.048 0.0427-0.12 0.064-0.216 0.064h-2.736c-0.20267 0-0.30667-0.096-0.312-0.288"/>
        </g>
        <g id="text5677" transform="matrix(.22152 0 0 .22152 280.07 947.58)">
          <path id="path5718" d="m-162.17 698.17c0-0.11733 0.032-0.20533 0.096-0.264 0.0693-0.064 0.14933-0.096 0.24-0.096 0.0907 0 0.16533 0.0293 0.224 0.088 0.0587 0.0533 0.0933 0.12 0.104 0.2v0.064c0.005 0.0427 0.0133 0.0773 0.024 0.104 0.0107 0.0213 0.0267 0.0533 0.048 0.096s0.0533 0.0827 0.096 0.12c0.048 0.0373 0.10399 0.072 0.168 0.104 0.21333 0.10133 0.46399 0.152 0.752 0.152 0.37866 0 0.65066-0.0907 0.816-0.272 0.17066-0.18667 0.25599-0.39733 0.256-0.632-0.00001-0.23467-0.0853-0.44266-0.256-0.624-0.16534-0.18133-0.46667-0.272-0.904-0.272h-0.352c-0.17601 0-0.26401-0.10133-0.264-0.304-0.00001-0.0587 0.008-0.10666 0.024-0.144 0.0213-0.0373 0.0427-0.0667 0.064-0.088s0.0587-0.0373 0.112-0.048c0.0587-0.016 0.10666-0.024 0.144-0.024 0.0373-0.005 0.0987-0.0107 0.184-0.016 0.0907-0.005 0.16266-0.0107 0.216-0.016 0.21333-0.016 0.39999-0.10133 0.56-0.256 0.15999-0.16 0.23999-0.34666 0.24-0.56-0.00001-0.144-0.064-0.272-0.192-0.384-0.12267-0.11733-0.33601-0.176-0.64-0.176-0.49601 0-0.77601 0.096-0.84 0.288l-0.008 0.048c-0.005 0.0373-0.016 0.0747-0.032 0.112-0.0107 0.032-0.0267 0.0693-0.048 0.112-0.0213 0.0373-0.056 0.0693-0.104 0.096-0.0427 0.0213-0.096 0.032-0.16 0.032-0.10667 0-0.18934-0.0347-0.248-0.104-0.0533-0.0693-0.08-0.16-0.08-0.272 0-0.22933 0.12-0.43733 0.36-0.624 0.23999-0.192 0.62666-0.288 1.16-0.288 0.47466 0 0.84266 0.112 1.104 0.336 0.26666 0.21867 0.39999 0.49334 0.4 0.824-0.00001 0.46934-0.21067 0.85067-0.632 1.144 0.31466 0.128 0.53599 0.304 0.664 0.528 0.13333 0.224 0.19999 0.45333 0.2 0.688-0.00001 0.42133-0.15467 0.776-0.464 1.064-0.30401 0.288-0.73067 0.432-1.28 0.432-0.50667 0-0.92534-0.10667-1.256-0.32-0.33067-0.21867-0.496-0.50133-0.496-0.848"/>
        </g>
        <g id="text5681" transform="matrix(.22152 0 0 .22152 280.07 947.58)">
          <path id="path5727" d="m-192.94 706.86v-0.168c0-0.0427 0.003-0.0747 0.008-0.096 0.005-0.0267 0.0107-0.0453 0.016-0.056 0.005-0.016 0.0187-0.0427 0.04-0.08 0.0267-0.0373 0.048-0.0693 0.064-0.096l1.648-2.6c0.0533-0.0853 0.10133-0.13866 0.144-0.16 0.0427-0.0267 0.10933-0.04 0.2-0.04h0.416c0.0907 0.00001 0.16 0.0187 0.208 0.056s0.0747 0.0773 0.08 0.12c0.0107 0.0427 0.016 0.10134 0.016 0.176v2.656h0.6c0.192 0 0.288 0.0987 0.288 0.296 0 0.19734-0.0987 0.29867-0.296 0.304h-0.592v0.744h0.472c0.016-0.005 0.0293-0.008 0.04-0.008 0.21333 0 0.31467 0.10134 0.304 0.304 0 0.20267-0.104 0.304-0.312 0.304h-1.56c-0.0587 0-0.10666-0.003-0.144-0.008-0.032-0.0107-0.0667-0.04-0.104-0.088s-0.056-0.11733-0.056-0.208c0-0.20266 0.10134-0.304 0.304-0.304 0.0107 0 0.024 0.003 0.04 0.008h0.472v-0.744h-1.992c-0.0587 0-0.10666-0.003-0.144-0.008-0.0373-0.0107-0.0747-0.04-0.112-0.088-0.032-0.0533-0.048-0.12533-0.048-0.216m0.688-0.288h1.608v-2.536l-1.608 2.536"/>
        </g>
        <g id="text5685" transform="matrix(.22152 0 0 .22152 280.07 947.58)">
          <path id="path5730" d="m-177.29 707.42c0-0.10133 0.032-0.184 0.096-0.248 0.064-0.0693 0.144-0.104 0.24-0.104 0.064 0 0.12 0.0133 0.168 0.04 0.048 0.0213 0.0827 0.056 0.104 0.104 0.0213 0.0427 0.0373 0.0827 0.048 0.12 0.0107 0.032 0.0187 0.0693 0.024 0.112l0.008 0.072c0.0373 0.13334 0.13333 0.24534 0.288 0.336 0.16 0.0853 0.34933 0.128 0.568 0.128 0.33066 0 0.60266-0.0853 0.816-0.256 0.21866-0.17066 0.328-0.41333 0.328-0.728 0-0.24533-0.072-0.46666-0.216-0.664-0.144-0.19733-0.37867-0.296-0.704-0.296-0.40534 0-0.70934 0.11467-0.912 0.344-0.0587 0.0747-0.10667 0.12-0.144 0.136-0.032 0.0107-0.0907 0.016-0.176 0.016-0.0747 0-0.136-0.0107-0.184-0.032-0.0427-0.0213-0.0747-0.0533-0.096-0.096-0.016-0.048-0.0267-0.0853-0.032-0.112v-2.352c-0.005-0.20799 0.0987-0.31199 0.312-0.312h2.224c0.21333 0.00001 0.32 0.0987 0.32 0.296 0 0.20801-0.0987 0.31201-0.296 0.312h-1.888v1.4c0.256-0.13866 0.54933-0.20799 0.88-0.208 0.48533 0.00001 0.86933 0.14934 1.152 0.448 0.288 0.29334 0.43199 0.66934 0.432 1.128-0.00001 0.46934-0.168 0.85067-0.504 1.144-0.336 0.288-0.77334 0.432-1.312 0.432-0.43734 0-0.80534-0.10933-1.104-0.328-0.29334-0.224-0.44-0.50133-0.44-0.832"/>
        </g>
        <g id="text5689" transform="matrix(.22152 0 0 .22152 280.07 947.58)">
          <path id="path5733" d="m-162.15 706.11c0-0.464 0.0693-0.86933 0.208-1.216 0.13866-0.34666 0.32266-0.61066 0.552-0.792 0.22933-0.18666 0.46399-0.32266 0.704-0.408 0.24533-0.0853 0.49333-0.12799 0.744-0.128 0.37866 0.00001 0.65066 0.0827 0.816 0.248 0.16533 0.16534 0.24799 0.34934 0.248 0.552-0.00001 0.12267-0.0373 0.21334-0.112 0.272-0.0747 0.0533-0.14934 0.08-0.224 0.08-0.10134 0.00001-0.18134-0.032-0.24-0.096-0.0533-0.0693-0.0853-0.12533-0.096-0.168-0.005-0.048-0.008-0.0853-0.008-0.112-0.032-0.11733-0.16534-0.17599-0.4-0.176-0.14934 0.00001-0.30134 0.0267-0.456 0.08-0.14934 0.048-0.30401 0.13067-0.464 0.248-0.15467 0.11201-0.28801 0.28267-0.4 0.512-0.10667 0.22401-0.17067 0.488-0.192 0.792 0.34666-0.30933 0.76266-0.46399 1.248-0.464 0.46399 0.00001 0.83199 0.144 1.104 0.432 0.29333 0.29867 0.43999 0.696 0.44 1.192-0.00001 0.58667-0.23467 1.04-0.704 1.36-0.26134 0.176-0.59734 0.264-1.008 0.264-0.16001 0-0.31201-0.016-0.456-0.048-0.14401-0.032-0.29867-0.10133-0.464-0.208-0.16534-0.112-0.30667-0.25333-0.424-0.424-0.11734-0.17066-0.216-0.41066-0.296-0.72-0.08-0.30933-0.12-0.66666-0.12-1.072m0.736 0.648c0 0.112 0.016 0.232 0.048 0.36s0.08 0.26134 0.144 0.4c0.0693 0.13334 0.17599 0.24534 0.32 0.336 0.14399 0.0853 0.31199 0.128 0.504 0.128 0.31466 0 0.57066-0.096 0.768-0.288 0.18666-0.18133 0.27999-0.432 0.28-0.752-0.00001-0.368-0.13867-0.65333-0.416-0.856-0.15467-0.10133-0.35467-0.152-0.6-0.152-0.29867 0-0.54934 0.0827-0.752 0.248-0.19734 0.16534-0.296 0.35734-0.296 0.576"/>
        </g>
        <g id="text5693" transform="matrix(.22152 0 0 .22152 280.07 947.58)">
          <path id="path5742" d="m-192.83 713.34v-0.44c0-0.064 0.003-0.11467 0.008-0.152 0.0107-0.0373 0.04-0.0747 0.088-0.112s0.12-0.056 0.216-0.056c0.13334 0 0.224 0.0213 0.272 0.064s0.096 0.064 0.144 0.064h2.448c0.21333 0 0.32 0.0987 0.32 0.296 0 0.0693-0.0107 0.128-0.032 0.176-0.0213 0.0427-0.0533 0.0827-0.096 0.12-0.0373 0.032-0.10667 0.10133-0.208 0.208-0.10133 0.10133-0.208 0.22133-0.32 0.36-0.30933 0.384-0.56 0.79733-0.752 1.24-0.18667 0.44266-0.304 0.81066-0.352 1.104-0.048 0.29333-0.0827 0.568-0.104 0.824s-0.032 0.38666-0.032 0.392c-0.0533 0.15466-0.16 0.232-0.32 0.232-0.0427 0-0.0853-0.008-0.128-0.024-0.0427-0.0107-0.088-0.048-0.136-0.112-0.048-0.0693-0.072-0.15734-0.072-0.264 0.0107-0.70934 0.14934-1.4053 0.416-2.088 0.272-0.68267 0.67467-1.3013 1.208-1.856h-1.896v0.064c0 0.13333-0.0293 0.21867-0.088 0.256-0.0587 0.0373-0.136 0.056-0.232 0.056h-0.032c-0.10133 0-0.17866-0.0213-0.232-0.064-0.048-0.048-0.0747-0.0907-0.08-0.128-0.005-0.0373-0.008-0.0907-0.008-0.16"/>
        </g>
        <g id="text5697" transform="matrix(.22152 0 0 .22152 280.07 947.58)">
          <path id="path5739" d="m-177.37 716.16c0-0.57067 0.328-0.97334 0.984-1.208-0.288-0.0853-0.504-0.22134-0.648-0.408-0.144-0.18667-0.216-0.38933-0.216-0.608 0-0.368 0.14133-0.67467 0.424-0.92 0.28266-0.25067 0.68266-0.376 1.2-0.376 0.29866 0 0.56 0.0427 0.784 0.128 0.224 0.08 0.39466 0.18933 0.512 0.328 0.11733 0.13333 0.20266 0.272 0.256 0.416 0.0533 0.13867 0.08 0.28 0.08 0.424-0.00001 0.48533-0.288 0.824-0.864 1.016 0.336 0.10133 0.584 0.264 0.744 0.488 0.15999 0.21866 0.23999 0.45866 0.24 0.72-0.00001 0.432-0.15467 0.78933-0.464 1.072-0.30934 0.28266-0.736 0.424-1.28 0.424-0.55467 0-0.98667-0.14134-1.296-0.424-0.304-0.288-0.456-0.64534-0.456-1.072m0.672-0.008c0 0.29333 0.10666 0.51733 0.32 0.672 0.21333 0.15466 0.46666 0.232 0.76 0.232 0.32 0 0.57866-0.08 0.776-0.24 0.19733-0.16 0.296-0.37867 0.296-0.656 0-0.272-0.0987-0.49067-0.296-0.656-0.192-0.16534-0.45067-0.248-0.776-0.248-0.336 0-0.6 0.0827-0.792 0.248-0.192 0.16533-0.288 0.38133-0.288 0.648m0.12-2.208c0 0.22933 0.0933 0.40533 0.28 0.528 0.192 0.12266 0.41866 0.184 0.68 0.184 0.272 0 0.49866-0.0613 0.68-0.184 0.18666-0.128 0.28-0.304 0.28-0.528 0-0.22933-0.096-0.40267-0.288-0.52-0.18667-0.12267-0.41067-0.184-0.672-0.184-0.272 0-0.50134 0.0613-0.688 0.184-0.18134 0.12267-0.272 0.296-0.272 0.52"/>
        </g>
        <g id="text5701" transform="matrix(.22152 0 0 .22152 280.07 947.58)">
          <path id="path5736" d="m-162.15 714.26c0-0.58133 0.232-1.0293 0.696-1.344 0.27199-0.18667 0.62666-0.28 1.064-0.28 0.15466 0 0.30133 0.016 0.44 0.048 0.14399 0.032 0.29599 0.10133 0.456 0.208 0.15999 0.10667 0.29599 0.248 0.408 0.424 0.11733 0.17067 0.21333 0.41067 0.288 0.72 0.08 0.304 0.11999 0.66133 0.12 1.072-0.00001 0.37866-0.0453 0.72-0.136 1.024s-0.20801 0.54933-0.352 0.736c-0.14401 0.18133-0.31201 0.33333-0.504 0.456-0.18667 0.12266-0.37334 0.208-0.56 0.256-0.18134 0.048-0.36801 0.072-0.56 0.072-0.42667 0-0.728-0.08-0.904-0.24-0.17067-0.16534-0.256-0.352-0.256-0.56 0-0.12267 0.0347-0.21067 0.104-0.264 0.0747-0.0587 0.14933-0.088 0.224-0.088 0.10133 0 0.18133 0.0347 0.24 0.104 0.0587 0.064 0.0907 0.12 0.096 0.168 0.0107 0.0427 0.016 0.0773 0.016 0.104 0.0267 0.11733 0.18933 0.176 0.488 0.176 0.15466 0 0.30133-0.024 0.44-0.072 0.14399-0.0533 0.28533-0.136 0.424-0.248 0.14399-0.112 0.26666-0.28 0.368-0.504 0.10133-0.22934 0.16533-0.49867 0.192-0.808-0.35201 0.31466-0.77067 0.472-1.256 0.472-0.34134 0-0.63201-0.0827-0.872-0.248-0.44267-0.31467-0.664-0.776-0.664-1.384m0.672 0.016c0 0.31466 0.096 0.56533 0.288 0.752 0.17599 0.17066 0.41066 0.256 0.704 0.256 0.31466 0 0.57066-0.0827 0.768-0.248 0.20266-0.16534 0.30399-0.35734 0.304-0.576-0.00001-0.16533-0.0267-0.33333-0.08-0.504-0.048-0.17067-0.15201-0.33333-0.312-0.488-0.15467-0.15467-0.35201-0.232-0.592-0.232-0.36267 0-0.63467 0.096-0.816 0.288-0.176 0.192-0.264 0.42133-0.264 0.688v0.064"/>
        </g>
        <g id="text5705" transform="matrix(.22152 0 0 .22152 280.07 947.58)">
          <path id="path5745" d="m-192.64 724.86c0-0.11733 0.0747-0.21599 0.224-0.296l0.824-0.432v-0.008l-0.824-0.424c-0.14933-0.0693-0.224-0.17066-0.224-0.304 0-0.0853 0.0293-0.15733 0.088-0.216 0.064-0.0587 0.136-0.088 0.216-0.088 0.0533 0.00001 0.11467 0.0213 0.184 0.064 0.0693 0.0427 0.34134 0.21867 0.816 0.528l-0.008-0.2c-0.005-0.13866-0.0133-0.29066-0.024-0.456-0.005-0.17066-0.008-0.29333-0.008-0.368v-0.088c0.0427-0.14399 0.14134-0.21599 0.296-0.216 0.10133 0.00001 0.176 0.0293 0.224 0.088s0.072 0.11734 0.072 0.176v0.088l-0.04 0.976c0.12267-0.08 0.26933-0.17599 0.44-0.288 0.30933-0.20266 0.49067-0.30399 0.544-0.304 0.0853 0.00001 0.15733 0.0293 0.216 0.088 0.064 0.0587 0.096 0.13067 0.096 0.216 0 0.12267-0.0747 0.22401-0.224 0.304l-0.824 0.424v0.008l0.824 0.432c0.14933 0.08 0.224 0.17867 0.224 0.296 0 0.0853-0.032 0.16001-0.096 0.224-0.0587 0.0587-0.128 0.088-0.208 0.088-0.0587 0.00001-0.22133-0.0907-0.488-0.272-0.192-0.12266-0.36-0.23199-0.504-0.328l0.008 0.208c0.005 0.13867 0.0107 0.29334 0.016 0.464 0.0107 0.16534 0.016 0.28534 0.016 0.36v0.08c-0.0427 0.144-0.14133 0.216-0.296 0.216-0.10133 0-0.17866-0.0293-0.232-0.088-0.048-0.0587-0.072-0.11733-0.072-0.176v-0.088l0.048-0.976c-0.12266 0.08-0.26933 0.17601-0.44 0.288-0.31466 0.20801-0.49866 0.31201-0.552 0.312-0.0747 0.00001-0.14666-0.0267-0.216-0.08-0.064-0.0587-0.096-0.13599-0.096-0.232"/>
        </g>
        <g id="text5709" transform="matrix(.22152 0 0 .22152 280.07 947.58)">
          <path id="path5748" d="m-177.37 724.13c0-0.45866 0.056-0.85866 0.168-1.2 0.112-0.34133 0.25866-0.60266 0.44-0.784 0.18666-0.18132 0.376-0.31199 0.568-0.392 0.192-0.0853 0.38666-0.12799 0.584-0.128 0.20266 0.00001 0.4 0.0427 0.592 0.128s0.37866 0.21868 0.56 0.4c0.18133 0.17601 0.328 0.43467 0.44 0.776 0.11199 0.34134 0.16799 0.74134 0.168 1.2-0.00001 0.46401-0.0587 0.86934-0.176 1.216-0.112 0.34667-0.26134 0.608-0.448 0.784-0.18134 0.176-0.368 0.30667-0.56 0.392-0.192 0.08-0.384 0.12-0.576 0.12-0.19734 0-0.392-0.04-0.584-0.12-0.18667-0.08-0.37334-0.208-0.56-0.384-0.18134-0.18133-0.33067-0.44266-0.448-0.784-0.112-0.34666-0.168-0.75466-0.168-1.224m0.672-0.072c0 0.69867 0.112 1.2053 0.336 1.52 0.224 0.30934 0.47466 0.464 0.752 0.464 0.272 0 0.52-0.15466 0.744-0.464 0.22933-0.31466 0.344-0.82133 0.344-1.52 0-0.34666-0.0373-0.64799-0.112-0.904-0.0693-0.25599-0.16534-0.44533-0.288-0.568-0.11734-0.12799-0.23467-0.21866-0.352-0.272-0.112-0.0587-0.22667-0.088-0.344-0.088-0.272 0.00001-0.52 0.14401-0.744 0.432-0.224 0.28267-0.336 0.74934-0.336 1.4"/>
        </g>
        <g id="text5713" transform="matrix(.22152 0 0 .22152 280.07 947.58)">
          <path id="path5751" d="m-162.23 725.02c0-0.12266 0.0533-0.21066 0.16-0.264 0.048-0.0267 0.128-0.04 0.24-0.04h0.352l0.144-1.176h-0.544c-0.096 0.00001-0.17334-0.0213-0.232-0.064-0.0587-0.048-0.0933-0.0907-0.104-0.128s-0.016-0.072-0.016-0.104c0-0.0373 0.005-0.0773 0.016-0.12 0.016-0.0427 0.0533-0.0853 0.112-0.128 0.064-0.0427 0.14666-0.064 0.248-0.064h0.6c-0.00001-0.0267 0.003-0.0587 0.008-0.096 0.005-0.0427 0.0187-0.14133 0.04-0.296 0.0213-0.15999 0.0453-0.33866 0.072-0.536-0.00001-0.0213 0.003-0.0507 0.008-0.088 0.0107-0.0427 0.04-0.0907 0.088-0.144 0.0533-0.0533 0.12266-0.08 0.208-0.08 0.0907 0.00001 0.16266 0.032 0.216 0.096 0.0533 0.0587 0.08 0.12268 0.08 0.192-0.00001 0.0747-0.0373 0.39201-0.112 0.952h0.768c-0.00001-0.0267 0.003-0.0587 0.008-0.096 0.005-0.0427 0.0187-0.14133 0.04-0.296 0.0213-0.15999 0.0453-0.33866 0.072-0.536-0.00001-0.0213 0.003-0.0507 0.008-0.088 0.0107-0.0427 0.04-0.0907 0.088-0.144 0.0533-0.0533 0.12266-0.08 0.208-0.08 0.0747 0.00001 0.14133 0.0267 0.2 0.08 0.064 0.0533 0.096 0.12001 0.096 0.2-0.00001 0.0747-0.0373 0.39467-0.112 0.96h0.28c0.11199 0.00001 0.19199 0.0133 0.24 0.04 0.10133 0.0587 0.15199 0.14667 0.152 0.264-0.00001 0.12267-0.0533 0.21067-0.16 0.264-0.048 0.0267-0.12801 0.04-0.24 0.04h-0.352l-0.144 1.176h0.544c0.096 0.00001 0.17333 0.024 0.232 0.072 0.0587 0.0427 0.0933 0.0827 0.104 0.12s0.016 0.072 0.016 0.104c-0.00001 0.0373-0.008 0.0773-0.024 0.12-0.0107 0.0373-0.0453 0.08-0.104 0.128-0.0587 0.0427-0.13867 0.064-0.24 0.064h-0.608c-0.0107 0.11201-0.048 0.42134-0.112 0.928-0.032 0.21334-0.13334 0.32-0.304 0.32-0.0853 0-0.15734-0.0293-0.216-0.088-0.0533-0.0587-0.08-0.12533-0.08-0.2-0.00001-0.0853 0.0373-0.40533 0.112-0.96h-0.776c-0.0107 0.11201-0.048 0.42134-0.112 0.928-0.032 0.21334-0.13334 0.32-0.304 0.32-0.0853 0-0.15734-0.0293-0.216-0.088-0.0533-0.0587-0.08-0.12533-0.08-0.2 0-0.0853 0.0373-0.40533 0.112-0.96h-0.28c-0.112 0.00001-0.192-0.0133-0.24-0.04-0.10667-0.064-0.16-0.15199-0.16-0.264m1.36-0.304h0.768l0.144-1.176h-0.768l-0.144 1.176"/>
        </g>
      </g>
    </g>
  </g>
  <metadata>
    <rdf:RDF>
      <cc:Work>
        <dc:format>image/svg+xml</dc:format>
        <dc:type rdf:resource="http://purl.org/dc/dcmitype/StillImage"/>
        <cc:license rdf:resource="http://creativecommons.org/licenses/publicdomain/"/>
        <dc:publisher>
          <cc:Agent rdf:about="http://openclipart.org/">
            <dc:title>Openclipart</dc:title>
          </cc:Agent>
        </dc:publisher>
        <dc:title>Simple cellphone</dc:title>
        <dc:date>2011-06-05T17:10:53</dc:date>
        <dc:description>The simplest cellphone</dc:description>
        <dc:source>http://openclipart.org/detail/142591/simple-cellphone-by-internet100</dc:source>
        <dc:creator>
          <cc:Agent>
            <dc:title>internet100</dc:title>
          </cc:Agent>
        </dc:creator>
        <dc:subject>
          <rdf:Bag>
            <rdf:li>cellphone cell phone</rdf:li>
            <rdf:li>clip art</rdf:li>
            <rdf:li>clipart</rdf:li>
          </rdf:Bag>
        </dc:subject>
      </cc:Work>
      <cc:License rdf:about="http://creativecommons.org/licenses/publicdomain/">
        <cc:permits rdf:resource="http://creativecommons.org/ns#Reproduction"/>
        <cc:permits rdf:resource="http://creativecommons.org/ns#Distribution"/>
        <cc:permits rdf:resource="http://creativecommons.org/ns#DerivativeWorks"/>
      </cc:License>
    </rdf:RDF>
  </metadata>
</svg>
