<?xml version="1.0"?>
<svg xmlns:rdf="http://www.w3.org/1999/02/22-rdf-syntax-ns#" xmlns="http://www.w3.org/2000/svg" xmlns:cc="http://creativecommons.org/ns#" xmlns:xlink="http://www.w3.org/1999/xlink" xmlns:dc="http://purl.org/dc/elements/1.1/" xmlns:svg="http://www.w3.org/2000/svg" id="svg8242" viewBox="0 0 400 400" version="1.1">
  <defs id="defs8244">
    <linearGradient id="linearGradient4001-4">
      <stop id="stop4003-7" stop-color="#fffae7" offset="0"/>
      <stop id="stop4005-3" stop-color="#fcddbf" offset="1"/>
    </linearGradient>
    <linearGradient id="linearGradient10145-6">
      <stop id="stop10147-3" stop-color="#c0c0c0" offset="0"/>
      <stop id="stop10149-0" stop-color="#fefefe" offset="1"/>
    </linearGradient>
    <linearGradient id="linearGradient6635-2">
      <stop id="stop6637-0" offset="0"/>
      <stop id="stop6639-7" stop-color="#b9b9b9" offset="1"/>
    </linearGradient>
    <linearGradient id="linearGradient3185-9">
      <stop id="stop3187-5" stop-color="#8a8a8a" offset="0"/>
      <stop id="stop3189-2" stop-color="#9f9f9f" offset=".29688"/>
      <stop id="stop3191-0" stop-color="#6e6e6e" offset="1"/>
    </linearGradient>
    <linearGradient id="linearGradient3201" y2="217.45" xlink:href="#linearGradient3185-9" gradientUnits="userSpaceOnUse" x2="271.18" y1="71.959" x1="274.34"/>
    <linearGradient id="linearGradient3203" y2="217.45" xlink:href="#linearGradient3185-9" gradientUnits="userSpaceOnUse" x2="271.18" gradientTransform="translate(10.437 -1.2374)" y1="71.959" x1="274.34"/>
    <linearGradient id="linearGradient3205" y2="217.45" xlink:href="#linearGradient3185-9" gradientUnits="userSpaceOnUse" x2="271.18" gradientTransform="translate(32.003 7.6014)" y1="71.959" x1="274.34"/>
    <linearGradient id="linearGradient3207" y2="217.45" xlink:href="#linearGradient3185-9" gradientUnits="userSpaceOnUse" x2="271.18" gradientTransform="translate(28.468 -35.886)" y1="71.959" x1="274.34"/>
    <linearGradient id="linearGradient3209" y2="217.45" xlink:href="#linearGradient3185-9" gradientUnits="userSpaceOnUse" x2="271.18" gradientTransform="translate(46.146 -39.421)" y1="71.959" x1="274.34"/>
    <linearGradient id="linearGradient3211" y2="217.45" xlink:href="#linearGradient3185-9" gradientUnits="userSpaceOnUse" x2="271.18" gradientTransform="translate(60.995 -47.906)" y1="71.959" x1="274.34"/>
    <linearGradient id="linearGradient3213" y2="217.45" xlink:href="#linearGradient3185-9" gradientUnits="userSpaceOnUse" x2="271.18" gradientTransform="translate(81.501 -50.028)" y1="71.959" x1="274.34"/>
    <linearGradient id="linearGradient3215" y2="217.45" xlink:href="#linearGradient3185-9" gradientUnits="userSpaceOnUse" x2="271.18" gradientTransform="matrix(-1 0 0 1 624.9 -49.321)" y1="71.959" x1="274.34"/>
    <linearGradient id="linearGradient3217" y2="217.45" xlink:href="#linearGradient3185-9" gradientUnits="userSpaceOnUse" x2="271.18" gradientTransform="matrix(-1 0 0 1 641.16 -52.503)" y1="71.959" x1="274.34"/>
    <linearGradient id="linearGradient3219" y2="217.45" xlink:href="#linearGradient3185-9" gradientUnits="userSpaceOnUse" x2="271.18" gradientTransform="matrix(-1 0 0 1 654.95 -38.714)" y1="71.959" x1="274.34"/>
    <linearGradient id="linearGradient3221" y2="217.45" xlink:href="#linearGradient3185-9" gradientUnits="userSpaceOnUse" x2="271.18" gradientTransform="matrix(-1 0 0 1 670.51 -18.208)" y1="71.959" x1="274.34"/>
    <linearGradient id="linearGradient3223" y2="217.45" xlink:href="#linearGradient3185-9" gradientUnits="userSpaceOnUse" x2="271.18" gradientTransform="matrix(-1 0 0 1 680.05 -21.39)" y1="71.959" x1="274.34"/>
    <linearGradient id="linearGradient3225" y2="217.45" xlink:href="#linearGradient3185-9" gradientUnits="userSpaceOnUse" x2="271.18" gradientTransform="matrix(-1 0 0 1 689.6 -15.026)" y1="71.959" x1="274.34"/>
    <linearGradient id="linearGradient3227" y2="173.36" gradientUnits="userSpaceOnUse" x2="353.61" y1="41.099" x1="331.81">
      <stop id="stop2232-1" stop-color="#cdcdcd" offset="0"/>
      <stop id="stop3111-6" stop-color="#f5f5f5" offset=".29688"/>
      <stop id="stop2234-7" stop-color="#9d9d9d" offset="1"/>
    </linearGradient>
    <linearGradient id="linearGradient3229" y2="217.45" xlink:href="#linearGradient3185-9" gradientUnits="userSpaceOnUse" x2="271.18" gradientTransform="matrix(-1 0 0 .80862 644.23 -12.329)" y1="71.959" x1="274.34"/>
    <linearGradient id="linearGradient3231" y2="217.45" xlink:href="#linearGradient3185-9" gradientUnits="userSpaceOnUse" x2="271.18" gradientTransform="matrix(-1 0 0 .80862 655.48 -19.829)" y1="71.959" x1="274.34"/>
    <linearGradient id="linearGradient3233" y2="217.45" xlink:href="#linearGradient3185-9" gradientUnits="userSpaceOnUse" x2="271.18" gradientTransform="matrix(1 0 0 .80862 38.518 .42116)" y1="71.959" x1="274.34"/>
    <linearGradient id="linearGradient3235" y2="217.45" xlink:href="#linearGradient3185-9" gradientUnits="userSpaceOnUse" x2="271.18" gradientTransform="matrix(1 0 0 .80862 57.018 -7.8288)" y1="71.959" x1="274.34"/>
    <linearGradient id="linearGradient3237" y2="174.92" xlink:href="#linearGradient10145-6" gradientUnits="userSpaceOnUse" x2="315.24" y1="157.95" x1="309.04"/>
    <linearGradient id="linearGradient3239" y2="174.92" xlink:href="#linearGradient10145-6" gradientUnits="userSpaceOnUse" x2="315.24" gradientTransform="matrix(-.88118 .47279 .47279 .88118 576.68 -141.12)" y1="157.95" x1="309.04"/>
    <linearGradient id="linearGradient3241" y2="194.14" xlink:href="#linearGradient6635-2" gradientUnits="userSpaceOnUse" x2="317.78" y1="159.37" x1="315.18"/>
    <linearGradient id="linearGradient3243" y2="193.43" xlink:href="#linearGradient6635-2" gradientUnits="userSpaceOnUse" x2="315.38" y1="159.23" x1="314.7"/>
    <radialGradient id="radialGradient3245" gradientUnits="userSpaceOnUse" cy="296.86" cx="309.5" gradientTransform="matrix(1 0 0 .61537 0 114.18)" r="13">
      <stop id="stop19430-7" stop-color="#ff8fff" stop-opacity=".28026" offset="0"/>
      <stop id="stop19432-9" stop-color="#ffcbff" stop-opacity="0" offset="1"/>
    </radialGradient>
    <linearGradient id="linearGradient3249" y2="67.362" xlink:href="#linearGradient4001-4" gradientUnits="userSpaceOnUse" x2="349.5" y1="199.86" x1="394"/>
    <linearGradient id="linearGradient3251" y2="206.73" xlink:href="#linearGradient4001-4" gradientUnits="userSpaceOnUse" x2="408.5" y1="181.73" x1="358.88"/>
  </defs>
  <g id="layer1" transform="translate(0,-590)">
    <g id="g3253">
      <g id="layer2" transform="matrix(1.8479 .35421 -.35421 1.8479 -383.56 426.4)">
        <path id="path1337" d="m302 207.86c13.5 9.5 57.16 20.936 63.5 20 6.5-3.5 40-32.5 43.5-40 4-5.5 8.5-74.5 8.5-74.5-23-84.5-161.5-54.5-149.5 37.5 0 0 24.657 44.542 34 57z" fill-rule="evenodd" stroke="#000" stroke-width="1px" fill="url(#linearGradient3251)"/>
      </g>
      <g id="layer13" transform="matrix(1.8479 .35421 -.35421 1.8479 -383.56 426.4)">
        <path id="path4135" d="m295.5 166.86c-6-21.5-11.34-74.564-5-75.5 0.8125-0.4375 5.7188 65.859 14.814 71.449-3.9043-23.41 0.52035-70.293 0.45117-69.293-0.0692 1.0004 7.4258 57.82 14.162 63.816-3.7637-29.004 0.85352-67.598 2.4473-65.723 2.3034 2.7099 5.1641 52.219 14.307 66.09-2.6501-15.023-1.6426-68.73-2.2598-68.246-0.77984 0.61203 14.434 52.555 24.748 67.27-10.19-34.28-5.11-83.92-0.67-71.858 1-1.375 12.188 48.219 11.406 68.633 7.7188-21.586 6.8152-67.269 5.5938-65.945-0.375 0.40625 21.125 35.984 18.844 54.586 13.109-18.949 10.186-47.239 10.535-46.974 0.38671 0.29394 12.621 18.2 12.621 18.2-23-84.5-161.5-54.5-149.5 37.5 0 0 18.157 3.5421 27.5 16z" fill="url(#linearGradient3249)" fill-rule="evenodd"/>
      </g>
      <g id="layer17" fill="url(#radialGradient3245)" transform="matrix(1.8479 .35421 -.35421 1.8479 -383.56 426.4)">
        <path id="path18553" d="m322 296.86c0 4.1421-5.5964 7.5-12.5 7.5s-12.5-3.3579-12.5-7.5 5.5964-7.5 12.5-7.5 12.5 3.3579 12.5 7.5z" transform="matrix(1.2587 -.61299 .55461 1.1388 -239.2 44.517)"/>
        <path id="path12545" d="m322 296.86c0 4.1421-5.5964 7.5-12.5 7.5s-12.5-3.3579-12.5-7.5 5.5964-7.5 12.5-7.5 12.5 3.3579 12.5 7.5z" transform="matrix(1.2587 -.61299 .55461 1.1388 -162.7 27.517)"/>
      </g>
      <g id="layer5" transform="matrix(1.8479 .35421 -.35421 1.8479 -383.56 426.4)">
        <path id="path9270" d="m293.63 175.37s10.43 11.667 16.971 14.319l15.38-4.773c3.0052-3.0052 1.7678-22.627 1.7678-22.627-14.672-10.43-31.113-6.7175-34.118 13.081z" fill="url(#linearGradient3237)" fill-rule="evenodd"/>
        <path id="path10153" d="m400.86 152.23s-3.6743 15.212-8.1842 20.641l-15.809 3.0655c-4.0689-1.2273-12.256-19.103-12.256-19.103 7.9979-16.128 24.24-20.629 36.249-4.6036z" fill="url(#linearGradient3239)" fill-rule="evenodd"/>
        <path id="path4010" stroke-linejoin="round" d="m329.5 176.61c0 8.9746-6.0442 16.25-13.5 16.25s-13.5-7.2754-13.5-16.25 6.0442-16.25 13.5-16.25 13.5 7.2754 13.5 16.25z" transform="matrix(.95876 -.2842 .2842 .95876 -38.663 93.09)" stroke="#000" stroke-linecap="square" stroke-width="1.1" fill="url(#linearGradient3241)"/>
        <path id="path4885" stroke-linejoin="round" d="m329.5 176.61c0 8.9746-6.0442 16.25-13.5 16.25s-13.5-7.2754-13.5-16.25 6.0442-16.25 13.5-16.25 13.5 7.2754 13.5 16.25z" transform="matrix(.95876 -.2842 .2842 .95876 28.837 77.84)" stroke="#000" stroke-linecap="square" stroke-width="1.1" fill="url(#linearGradient3243)"/>
      </g>
      <g id="layer14-6" transform="matrix(1.8479 .35421 -.35421 1.8479 -383.56 426.4)">
        <path id="path5017-7" d="m356.5 203.86c-0.6744-0.84709 2.7047-1.0143 4-1.5" stroke="#000" stroke-width="1px" fill="none"/>
      </g>
      <g id="layer12-3" fill-rule="evenodd" transform="matrix(1.8479 .35421 -.35421 1.8479 -383.56 426.4)">
        <path id="path4114-2" d="m373.41 60.439c18.562 17.439 22.274 65.04-7.4246 100.35 41.366-48.172 26.693-81.764 7.4246-100.35z" fill="url(#linearGradient3229)"/>
        <path id="path4122-2" d="m384.66 52.939c18.562 17.439 22.274 65.04-7.4246 100.35 41.366-48.172 26.693-81.764 7.4246-100.35z" fill="url(#linearGradient3231)"/>
        <path id="path4126-1" d="m309.34 73.189c-18.56 17.439-22.27 65.041 7.43 100.35-41.37-48.18-26.7-81.769-7.43-100.35z" fill="url(#linearGradient3233)"/>
        <path id="path4130-5" d="m327.84 64.939c-18.56 17.439-22.27 65.041 7.43 100.35-41.37-48.18-26.7-81.769-7.43-100.35z" fill="url(#linearGradient3235)"/>
      </g>
      <g id="layer3-3" transform="matrix(1.8479 .35421 -.35421 1.8479 -383.56 426.4)">
        <path id="path1342-3" d="m425.25 141.12s5.0989 19.727 1.25 38.5c42.45-100.51-38.08-148.82-99.31-136.34-52.96-0.449-117.07 93.86-47.97 171.63-7.57-11.13-25.41-74.2-18.72-87.53-5.6927 13.669 4.7188 45.875 4.7188 45.875 4.9698 18.764 15.525 31.575 26.062 40.844-23.5-33-24.781-80.232-18.281-93.732-6.3068 13.589-1.1671 56.638 3 61.5 11 20 35.582 40.514 41.5 41.5-23-20-44.938-91.438-38.5-108-4.5625 15.438 10.674 46.19 14.75 50.75-2.5-7-4.3076-50.876-0.75-59.75-1 10.25 14.971 48.647 23 54-5.5-7.75-7.1385-56.856 0-64.5-8.5 18.75 7.9834 62.5 15.5 62.5-10.75-21.25-3.5-59 5-67.5-5.921 7.5371-7.5 17-7.5 17 0 11 15.548 44.968 26.5 50-9-13.5-8.5-58-2-69.5-2.6286 4.4358-3.25 12.5-3.25 12.5 8.5 4.75 12.75 45 12.25 55 10.775-15.6 3.9842-65.818 4-69.5 11.25 10.75 13.125 45.062 15.5 54.5 5.1406-9.5004 7.8691-51.83 3.5-57 4.75 0.5 18.25 47.5 17 59 7.2898-5.3017-3-54.5-3-54.5 16.5 17.5 7.3125 108.31 7 116.5 8.1875-11.312 16.75-93.25 12.5-97 4.0249 3.1305-2.5 49-2.5 49 2 1 0 33 0 33 7.5-14.25 11.75-82.75 11.5-87 0.0732 4.9948-2.75 38.263-2.75 38.263z" fill-rule="evenodd" stroke="#000" stroke-width=".5" fill="url(#linearGradient3227)"/>
      </g>
      <g id="layer11-8" fill-rule="evenodd" transform="matrix(1.8479 .35421 -.35421 1.8479 -383.56 426.4)">
        <path id="path2302-2" d="m270.82 89.99c-18.56 21.57-22.27 80.43 7.43 124.1-41.37-59.58-26.7-101.12-7.43-124.1z" fill="url(#linearGradient3201)"/>
        <path id="path4066-8" d="m279.51 100.75c-13.062 24.067-18.024 70.183 10.675 112.1-36.866-46.324-24.693-87.616-10.675-112.1z" fill="url(#linearGradient3203)"/>
        <path id="path4070-5" d="m283.83 106.59c-18.312 21.567 1.2261 75.683 30.925 115.6-36.366-31.324-50.443-92.366-30.925-115.6z" fill="url(#linearGradient3205)"/>
        <path id="path4074-8" d="m304.04 68.604c-14.56 26.067-16.77 52.186-11.58 95.346-13.61-55.82-5.44-72.115 11.58-95.346z" fill="url(#linearGradient3207)"/>
        <path id="path4078-0" d="m320.22 86.819c-13.062 23.317-11.524 41.933-5.3254 71.847-11.366-28.324-11.443-48.116 5.3254-71.847z" fill="url(#linearGradient3209)"/>
        <path id="path4082-8" d="m338.32 87.083c-14.81 23.817-16.78 41.437-7.83 70.847-17.86-33.57-9.44-47.12 7.83-70.847z" fill="url(#linearGradient3211)"/>
        <path id="path4086-6" d="m338.07 88.962c-2.0616 24.817 5.4761 47.433 15.175 66.847-23.866-29.324-23.443-49.616-15.175-66.847z" fill="url(#linearGradient3213)"/>
        <path id="path4090-9" d="m354.58 95.169c5.0616 21.067 7.0239 32.433 8.3254 58.847 5.8658-17.824 1.9433-50.866-8.3254-58.847z" fill="url(#linearGradient3215)"/>
        <path id="path4094-3" d="m375.09 86.987c10.312 14.317 6.2739 39.433 7.3254 51.597 6.1158-33.574 9.4433-42.366-7.3254-51.597z" fill="url(#linearGradient3217)"/>
        <path id="path4098-3" d="m388.13 76.026c9.5616 22.817 7.7739 32.183 15.575 64.847 1.8658-30.574-2.8067-51.366-15.575-64.847z" fill="url(#linearGradient3219)"/>
        <path id="path4102-7" d="m418.94 109.03c1.5616 25.067-1.9761 57.933-11.925 94.097 6.1158-32.824 8.1933-68.866 11.925-94.097z" fill="url(#linearGradient3221)"/>
        <path id="path4106-4" d="m416.13 71.782c18.562 21.567 16.009 60.458 11.059 103.94 18.738-57.806 8.2098-80.964-11.059-103.94z" fill="url(#linearGradient3223)"/>
        <path id="path4110-3" d="m414.36 70.898c11.137 23.688 5.8336 61.342 3.182 115.44 12.728-69.12 11.314-92.808-3.182-115.44z" fill="url(#linearGradient3225)"/>
      </g>
    </g>
  </g>
  <metadata>
    <rdf:RDF>
      <cc:Work>
        <dc:format>image/svg+xml</dc:format>
        <dc:type rdf:resource="http://purl.org/dc/dcmitype/StillImage"/>
        <cc:license rdf:resource="http://creativecommons.org/licenses/publicdomain/"/>
        <dc:publisher>
          <cc:Agent rdf:about="http://openclipart.org/">
            <dc:title>Openclipart</dc:title>
          </cc:Agent>
        </dc:publisher>
        <dc:title>chibi boy</dc:title>
        <dc:date>2012-02-04T13:30:26</dc:date>
        <dc:description>chibi boy</dc:description>
        <dc:source>http://openclipart.org/detail/167679/chibi-boy-by-asrafil</dc:source>
        <dc:creator>
          <cc:Agent>
            <dc:title>asrafil</dc:title>
          </cc:Agent>
        </dc:creator>
        <dc:subject>
          <rdf:Bag>
            <rdf:li>anime</rdf:li>
            <rdf:li>boy</rdf:li>
            <rdf:li>cartoon</rdf:li>
            <rdf:li>chibi</rdf:li>
            <rdf:li>clip art</rdf:li>
            <rdf:li>clipart</rdf:li>
            <rdf:li>manga</rdf:li>
            <rdf:li>men</rdf:li>
          </rdf:Bag>
        </dc:subject>
      </cc:Work>
      <cc:License rdf:about="http://creativecommons.org/licenses/publicdomain/">
        <cc:permits rdf:resource="http://creativecommons.org/ns#Reproduction"/>
        <cc:permits rdf:resource="http://creativecommons.org/ns#Distribution"/>
        <cc:permits rdf:resource="http://creativecommons.org/ns#DerivativeWorks"/>
      </cc:License>
    </rdf:RDF>
  </metadata>
</svg>
