<?xml version="1.0"?>
<svg xmlns:rdf="http://www.w3.org/1999/02/22-rdf-syntax-ns#" xmlns="http://www.w3.org/2000/svg" xmlns:cc="http://creativecommons.org/ns#" xmlns:dc="http://purl.org/dc/elements/1.1/" xmlns:svg="http://www.w3.org/2000/svg" id="svg4368" viewBox="0 0 24 24" version="1.0">
  <defs id="defs4370">
    <filter id="filter4928">
      <feGaussianBlur id="feGaussianBlur4930" stdDeviation="0.070000007"/>
    </filter>
    <filter id="filter4944">
      <feGaussianBlur id="feGaussianBlur4946" stdDeviation="0.21"/>
    </filter>
    <filter id="filter4998">
      <feGaussianBlur id="feGaussianBlur5000" stdDeviation="0.35"/>
    </filter>
    <filter id="filter5018">
      <feGaussianBlur id="feGaussianBlur5020" stdDeviation="0.1790625"/>
    </filter>
    <filter id="filter5024">
      <feGaussianBlur id="feGaussianBlur5026" stdDeviation="0.1790625"/>
    </filter>
    <filter id="filter5028">
      <feGaussianBlur id="feGaussianBlur5030" stdDeviation="0.0596875"/>
    </filter>
    <filter id="filter5032">
      <feGaussianBlur id="feGaussianBlur5034" stdDeviation="0.0596875"/>
    </filter>
  </defs>
  <g id="layer1" transform="translate(-114.29 -292.36)">
    <g id="g5038" transform="translate(3.5 -6.5)">
      <rect id="rect4948" rx=".2" ry=".2" height="11" filter="url(#filter4998)" width="17" y="305.46" x="114.39"/>
      <rect id="rect4934" rx=".2" ry=".2" height="11" filter="url(#filter4944)" width="17" y="305.46" x="114.39"/>
      <rect id="rect4380" rx=".2" ry=".2" height="11" filter="url(#filter4928)" width="17" y="305.36" x="114.29" fill="#f5f6eb"/>
      <path id="path5022" filter="url(#filter5024)" d="m122.84 309.41c-0.34 0-8.22 6.5-8.44 6.94l8.44-1.96c2.79 0.59 5.67 1.55 8.43 1.96-0.22-0.44-8.1-6.94-8.43-6.94z"/>
      <path id="rect4391" filter="url(#filter5032)" d="m122.79 309.36c-0.34 0-8.22 6.5-8.44 6.94 0.03 0.04 0.07 0.06 0.12 0.06h16.63c0.05 0 0.09-0.02 0.12-0.06-0.22-0.44-8.1-6.94-8.43-6.94z" fill="#f5f6eb"/>
      <path id="path5008" filter="url(#filter5018)" d="m114.4 305.47c0.22 0.45 8.1 6.94 8.44 6.94 0.33 0 8.21-6.49 8.43-6.94l-8.43 2.07c-2.8-0.62-5.68-1.62-8.44-2.07z"/>
      <path id="rect4405" filter="url(#filter5028)" d="m0.1875 13c-0.0554 0-0.08885 0.026-0.125 0.062 0.21921 0.441 8.1056 6.938 8.4375 6.938s8.218-6.497 8.438-6.938c-0.037-0.036-0.07-0.062-0.126-0.062h-16.624z" fill="#f5f6eb" transform="translate(114.29 292.36)"/>
    </g>
  </g>
  <metadata>
    <rdf:RDF>
      <cc:Work>
        <dc:format>image/svg+xml</dc:format>
        <dc:type rdf:resource="http://purl.org/dc/dcmitype/StillImage"/>
        <cc:license rdf:resource="http://creativecommons.org/licenses/publicdomain/"/>
        <dc:publisher>
          <cc:Agent rdf:about="http://openclipart.org/">
            <dc:title>Openclipart</dc:title>
          </cc:Agent>
        </dc:publisher>
        <dc:title>Closed Envelope</dc:title>
        <dc:date>2008-09-23T03:42:59</dc:date>
        <dc:description>A closed envelope.  Made in Inkscape. 24x24, but scales nicely.</dc:description>
        <dc:source>http://openclipart.org/detail/19339/closed-envelope-by-llubnek-19339</dc:source>
        <dc:creator>
          <cc:Agent>
            <dc:title>LlubNek</dc:title>
          </cc:Agent>
        </dc:creator>
        <dc:subject>
          <rdf:Bag>
            <rdf:li>clip art</rdf:li>
            <rdf:li>clipart</rdf:li>
            <rdf:li>email</rdf:li>
            <rdf:li>envelope</rdf:li>
            <rdf:li>icon</rdf:li>
            <rdf:li>image</rdf:li>
            <rdf:li>mail</rdf:li>
            <rdf:li>media</rdf:li>
            <rdf:li>png</rdf:li>
            <rdf:li>public domain</rdf:li>
            <rdf:li>svg</rdf:li>
          </rdf:Bag>
        </dc:subject>
      </cc:Work>
      <cc:License rdf:about="http://creativecommons.org/licenses/publicdomain/">
        <cc:permits rdf:resource="http://creativecommons.org/ns#Reproduction"/>
        <cc:permits rdf:resource="http://creativecommons.org/ns#Distribution"/>
        <cc:permits rdf:resource="http://creativecommons.org/ns#DerivativeWorks"/>
      </cc:License>
    </rdf:RDF>
  </metadata>
</svg>
