<?xml version="1.0"?>
<svg xmlns:rdf="http://www.w3.org/1999/02/22-rdf-syntax-ns#" xmlns="http://www.w3.org/2000/svg" xmlns:cc="http://creativecommons.org/ns#" xmlns:xlink="http://www.w3.org/1999/xlink" xmlns:dc="http://purl.org/dc/elements/1.1/" xmlns:svg="http://www.w3.org/2000/svg" id="svg2" xml:space="preserve" overflow="visible" viewBox="0 0 18121.891 17875.275" version="1.0" enable-background="new 0 0 18121.891 17875.275"><defs id="defs1434">
<linearGradient id="linearGradient4670" x1="9037.5" gradientUnits="userSpaceOnUse" y1="8871.8" gradientTransform="matrix(1,8e-4,-8e-4,1,7.1357,-7.2051)" x2="8966.8" y2="8817"><stop id="stop1151" stop-color="#fff" offset="0"/><stop id="stop1153" offset="1"/></linearGradient><radialGradient id="radialGradient4672" gradientUnits="userSpaceOnUse" cy="8796" cx="9008.3" gradientTransform="matrix(1,8e-4,-8e-4,1,7.1357,-7.2051)" r="35.928"><stop id="stop1158" stop-color="#fff" offset="0"/><stop id="stop1160" offset="1"/></radialGradient><linearGradient id="linearGradient4674" y2="8842.9" gradientUnits="userSpaceOnUse" y1="8851.4" x2="9011.5" x1="9020"><stop id="stop1171" stop-color="#C6C7C8" offset="0"/><stop id="stop1173" stop-color="#EDEDEE" offset="1"/></linearGradient><linearGradient id="linearGradient4676" y2="8820.5" gradientUnits="userSpaceOnUse" y1="8837.4" x2="8989" x1="9005.9"><stop id="stop1210" stop-color="#A7A8AA" offset="0"/><stop id="stop1212" stop-color="#fff" offset=".9944"/></linearGradient></defs>
<g id="g1148" transform="matrix(221.01 0 0 230.62 -1.9804e6 -2.0233e6)">
		<path id="path1155" d="m9001.8 8808.2c-15.5-0.1-28.3 22.8-30.6 52.6l61.2 0.1c-2.2-29.9-15-52.7-30.6-52.7z" fill="url(#linearGradient4670)"/>
		<circle id="circle1162" cy="8790" cx="9000.9" r="17.232" fill="url(#radialGradient4672)"/>
		<g id="g1164">
			<g id="g1166">
				<g id="g1168">
					<path id="path1175" d="m9024 8839.6l0.2 0.4c0.3 0.8 0 1.6-0.8 2l-2 0.9c0.2 1 0.2 2.1 0 3.1l2.4 0.9c0.7 0.3 1.1 1.1 0.8 1.9l-0.2 0.4c-0.3 0.8-1.1 1.1-1.9 0.8l-2.3-0.9c-0.5 0.9-1.2 1.6-2 2.2l0.7 1.7c0.3 0.7 0 1.6-0.8 1.9l-0.4 0.2c-0.7 0.3-1.6 0-1.9-0.8l-0.7-1.6c-1.1 0.3-2.3 0.3-3.4 0.1l-0.8 2.1c-0.3 0.8-1.2 1.1-1.9 0.8l-0.5-0.1c-0.7-0.3-1.1-1.2-0.8-1.9l0.9-2.2c-0.9-0.6-1.6-1.3-2.2-2.1l-2.2 0.9c-0.7 0.3-1.6 0-1.9-0.8l-0.2-0.4c-0.3-0.7 0-1.6 0.8-1.9l2.1-1c-0.2-1-0.2-2 0-3l-2-0.7c-0.8-0.3-1.1-1.2-0.8-1.9l0.1-0.5c0.3-0.7 1.2-1.1 1.9-0.8l2 0.8c0.6-0.9 1.4-1.8 2.4-2.4l-0.8-1.9c-0.4-0.7 0-1.6 0.7-1.9l0.4-0.2c0.8-0.3 1.6 0 2 0.8l0.8 1.9c1-0.2 1.9-0.2 2.9 0l0.8-2.2c0.3-0.7 1.2-1.1 1.9-0.8l0.5 0.2c0.7 0.2 1.1 1.1 0.8 1.8l-0.9 2.2c0.9 0.6 1.7 1.3 2.3 2.2l2.1-1c0.7-0.3 1.6 0.1 1.9 0.8zm-11.8 2.6c-1.3 0.6-1.9 2.1-1.4 3.4 0.6 1.3 2.1 1.9 3.4 1.4 1.4-0.6 2-2.1 1.4-3.4s-2.1-1.9-3.4-1.4z" enable-background="new    " fill="url(#linearGradient4674)"/>
					<path id="path1177" d="m9015.2 8834.1s-0.7 1.8-0.8 2.1c-0.9-0.2-1.7-0.2-2.6 0-0.1-0.3-0.7-1.8-0.7-1.8-0.2-0.4-0.5-0.8-1-0.9-0.4-0.2-0.8-0.2-1.2 0l-0.5 0.2c-0.4 0.2-0.7 0.5-0.9 0.9 0 0.2-0.1 0.4-0.1 0.6s0.1 0.5 0.2 0.7 0.6 1.5 0.7 1.7c-0.8 0.6-1.6 1.3-2.1 2.2-0.3-0.1-1.9-0.7-1.9-0.7-0.4-0.2-0.9-0.1-1.3 0-0.4 0.2-0.7 0.5-0.9 0.9l-0.1 0.5c-0.1 0.2-0.1 0.4-0.1 0.6 0 0.7 0.4 1.3 1 1.5 0 0 1.6 0.7 1.9 0.8-0.1 0.4-0.1 0.9-0.1 1.3 0 0.5 0 0.9 0.1 1.4-0.2 0.1-2 0.9-2 0.9-0.4 0.2-0.7 0.5-0.9 0.9-0.1 0.2-0.1 0.4-0.1 0.6s0 0.5 0.1 0.7l0.2 0.4c0.4 0.8 1.3 1.2 2.2 0.9 0 0 1.7-0.8 2-0.9 0.5 0.7 1.2 1.4 2 2-0.1 0.2-0.8 2-0.8 2-0.1 0.2-0.1 0.4-0.1 0.6 0 0.7 0.4 1.3 1.1 1.6l0.4 0.1c0.8 0.4 1.8 0 2.2-0.9 0 0 0.7-1.7 0.7-2 1.1 0.2 2.2 0.2 3.2 0 0.1 0.2 0.6 1.4 0.6 1.4 0.4 0.9 1.3 1.3 2.2 0.9l0.4-0.2c0.6-0.3 1-0.9 1-1.5 0-0.3 0-0.5-0.1-0.7 0 0-0.6-1.3-0.7-1.5 0.7-0.6 1.4-1.2 1.9-2 0.2 0.1 2.1 0.8 2.1 0.8 0.5 0.2 0.9 0.2 1.3 0s0.7-0.5 0.9-0.9l0.2-0.4c0.1-0.2 0.1-0.4 0.1-0.6 0-0.7-0.4-1.3-1.1-1.6 0 0-1.9-0.8-2.1-0.9 0-0.3 0.1-0.7 0.1-1.1 0-0.6-0.1-1.2-0.2-1.7 0.2-0.1 1.9-0.8 1.9-0.8 0.4-0.2 0.7-0.6 0.9-1 0.1-0.2 0.1-0.4 0.1-0.6s0-0.4-0.1-0.6l-0.2-0.5c-0.4-0.8-1.4-1.2-2.2-0.8 0 0-1.7 0.7-1.9 0.8-0.6-0.8-1.3-1.4-2.1-2 0.1-0.2 0.8-2 0.8-2 0-0.2 0.1-0.4 0.1-0.6s-0.1-0.4-0.1-0.6c-0.2-0.5-0.6-0.8-1-0.9l-0.4-0.2c-0.9-0.4-1.8 0.1-2.2 0.9zm-0.4 2.4l0.8-2.2c0.3-0.7 1-1 1.7-0.7l0.4 0.1c0.3 0.2 0.5 0.4 0.7 0.7 0.1 0.3 0.1 0.7 0 1l-0.9 2.3 0.1 0.1c0.9 0.6 1.7 1.3 2.2 2.1l0.1 0.1 2.3-1c0.6-0.2 1.3 0.1 1.6 0.7l0.2 0.4c0.1 0.2 0.1 0.3 0.1 0.5s0 0.3-0.1 0.5c-0.1 0.3-0.3 0.5-0.7 0.7l-2.2 0.9 0.1 0.2c0.1 0.6 0.1 1.2 0.1 1.8 0 0.4 0 0.8-0.1 1.3v0.1l2.5 1c0.5 0.2 0.8 0.7 0.8 1.2 0 0.1 0 0.3-0.1 0.4l-0.2 0.5c-0.1 0.3-0.3 0.5-0.6 0.6-0.4 0.2-0.7 0.2-1 0.1l-2.5-1-0.1 0.1c-0.5 0.9-1.2 1.6-2 2.2l-0.1 0.1 0.8 1.8c0.3 0.6 0 1.3-0.7 1.6l-0.4 0.2c-0.6 0.3-1.4 0-1.6-0.6l-0.8-1.8h-0.2c-1 0.3-2.1 0.3-3.2 0.1h-0.2l-0.9 2.2c-0.3 0.7-1 1-1.7 0.8l-0.4-0.2c-0.6-0.3-0.9-1-0.7-1.6l0.9-2.4-0.1-0.1c-0.9-0.6-1.6-1.3-2.2-2.1l-0.1-0.1-2.3 1c-0.6 0.3-1.3 0-1.6-0.7l-0.2-0.4c-0.1-0.3-0.1-0.6 0-0.9 0.1-0.4 0.3-0.6 0.6-0.7l2.4-1-0.1-0.2c-0.1-0.9-0.2-1.9 0-2.9v-0.2l-2.1-0.8c-0.7-0.3-1-1-0.7-1.7l0.1-0.4c0.2-0.3 0.4-0.6 0.7-0.7s0.6-0.1 1 0l2.1 0.9 0.1-0.2c0.6-1 1.4-1.7 2.3-2.4l0.1-0.1-0.8-2c-0.2-0.3-0.2-0.6-0.1-0.9 0.2-0.4 0.4-0.6 0.7-0.7l0.4-0.2c0.3-0.1 0.7-0.1 1 0s0.5 0.3 0.7 0.6l0.9 2.1h0.1c0.9-0.2 1.9-0.2 2.8 0h0.2l0.1-0.1z" fill="#707173"/>
					<path id="path1179" d="m9012.1 8842c-1.4 0.6-2.1 2.3-1.4 3.7 0.6 1.4 2.2 2.1 3.6 1.5 1.4-0.7 2.1-2.3 1.5-3.7-0.3-0.7-0.9-1.2-1.6-1.5-0.6-0.3-1.4-0.3-2.1 0zm2 0.4c0.6 0.2 1 0.7 1.3 1.3 0.5 1.2 0 2.6-1.2 3.1s-2.6-0.1-3.2-1.3c-0.1-0.3-0.2-0.6-0.2-0.9 0-0.9 0.6-1.8 1.5-2.2 0.6-0.2 1.2-0.2 1.8 0z" fill="#707173"/>
				</g>
				<path id="path1181" d="m9016.7 8844.4c0 2-1.6 3.7-3.6 3.7-0.9 0-1.7-0.4-2.3-0.9 0.7 0.9 1.7 1.4 2.8 1.4 2 0 3.6-1.6 3.6-3.6 0-1.2-0.5-2.2-1.3-2.8 0.5 0.6 0.8 1.4 0.8 2.2z" fill="#fff"/>
				<path id="path1183" d="m9006.8 8845.6c0-4.1 3.3-7.6 7.2-7.6 1.7 0 3.3 0.9 4.5 1.9-1.3-1.6-3.3-2.7-5.5-2.7-3.6 0-7.2 3.6-7.2 7.3 0 2.2 1.1 4.3 2.7 5.6-1-1.3-1.7-2.8-1.7-4.5z" fill="#fff"/>
				<g id="g1185" fill="#fff">
					<polygon id="polygon1187" points="9005.5 8841.9 9005.3 8842.4 9003.1 8841.5 9002.8 8840.8"/>
					<polygon id="polygon1189" points="9009.9 8837.4 9009.5 8837.5 9008.5 8835.3 9008.8 8834.6"/>
					<polygon id="polygon1191" points="9015.7 8837 9015.2 8836.8 9016.1 8834.6 9016.8 8834.3"/>
					<polygon id="polygon1193" points="9020.3 8841.1 9020.1 8840.6 9022.3 8839.7 9023 8840"/>
				</g>
				<g id="g1195">
					<polygon id="polygon1197" points="9021.3 8847.2 9021.5 8846.8 9023.7 8847.7 9024 8848.4" fill="#87898a"/>
					<polygon id="polygon1199" points="9017.1 8851.6 9017.5 8851.4 9018.4 8853.7 9018.2 8854.4" fill="#9c9d9f"/>
					<polygon id="polygon1201" points="9010.6 8852.4 9011 8852.6 9010.1 8854.9 9009.4 8855.2" fill="#b1b2b4"/>
					<polygon id="polygon1203" points="9005.8 8848.4 9006 8848.9 9003.7 8849.8 9003.1 8849.5" fill="#c6c7c8"/>
				</g>
			</g>
			<g id="g1205">
				<g id="g1207">
					<path id="path1214" d="m9009.2 8828.5v0.5c0 0.8-0.7 1.4-1.5 1.4h-2.2c-0.3 1.1-0.7 2.1-1.2 2.9l1.7 1.8c0.6 0.6 0.6 1.5 0 2.1l-0.3 0.3c-0.6 0.6-1.5 0.6-2 0l-1.8-1.8c-0.8 0.6-1.7 1-2.7 1.2v1.8c0 0.9-0.7 1.5-1.5 1.5h-0.5c-0.8 0-1.4-0.6-1.4-1.5v-1.7c-1.2-0.2-2.2-0.7-3.2-1.3l-1.6 1.6c-0.5 0.6-1.5 0.6-2 0l-0.4-0.3c-0.5-0.6-0.5-1.5 0-2.1l1.7-1.6c-0.6-0.9-1-1.8-1.2-2.9h-2.3c-0.8 0-1.5-0.6-1.5-1.4v-0.5c0-0.8 0.7-1.5 1.5-1.5h2.3c0.2-1 0.6-1.9 1.2-2.7l-1.6-1.5c-0.5-0.6-0.5-1.5 0-2.1l0.4-0.3c0.5-0.6 1.5-0.6 2 0l1.5 1.5c1-0.6 2-1.1 3.2-1.3v-2.1c0-0.8 0.6-1.4 1.4-1.4h0.5c0.8 0 1.5 0.6 1.5 1.4v2.2c0.9 0.2 1.8 0.6 2.6 1.1l1.6-1.7c0.6-0.5 1.5-0.5 2.1 0l0.3 0.4c0.6 0.5 0.6 1.5 0 2l-1.6 1.7c0.6 0.8 1 1.8 1.2 2.8h2.3c0.8 0 1.5 0.7 1.5 1.5zm-11.9-2.3c-1.4 0-2.6 1.2-2.6 2.6s1.2 2.6 2.6 2.6 2.6-1.2 2.6-2.6-1.2-2.6-2.6-2.6z" enable-background="new    " fill="url(#linearGradient4676)"/>
					<path id="path1216" d="m8997.2 8816.9c-0.9 0-1.6 0.7-1.6 1.6v1.9c-1 0.2-2 0.6-2.9 1.2l-1.4-1.4c-0.7-0.6-1.7-0.6-2.4 0l-0.3 0.3c-0.3 0.4-0.5 0.8-0.5 1.2 0 0.5 0.2 0.9 0.5 1.2l1.4 1.4c-0.5 0.8-0.8 1.7-1 2.5h-2.2c-1 0-1.7 0.8-1.7 1.7v0.5c0 0.9 0.7 1.6 1.7 1.6h2.1c0.2 0.9 0.6 1.8 1.1 2.7-0.2 0.1-1.5 1.5-1.5 1.5-0.3 0.3-0.5 0.7-0.5 1.2 0 0.4 0.2 0.8 0.5 1.2l0.3 0.3c0.7 0.6 1.7 0.6 2.4 0l1.5-1.5c0.9 0.6 1.9 1 2.9 1.2v1.5c0 1 0.7 1.7 1.6 1.7h0.5c0.9 0 1.7-0.7 1.7-1.7v-1.6c0.8-0.2 1.7-0.6 2.5-1.1l1.6 1.6c0.3 0.4 0.7 0.5 1.2 0.5 0.4 0 0.9-0.1 1.2-0.5l0.3-0.3c0.3-0.3 0.5-0.7 0.5-1.2 0-0.4-0.2-0.8-0.5-1.2 0 0-1.5-1.4-1.7-1.6 0.5-0.8 0.9-1.7 1.1-2.7h2.1c0.9 0 1.7-0.7 1.7-1.6v-0.5c0-0.9-0.8-1.7-1.7-1.7h-2.1c-0.2-0.9-0.6-1.8-1.1-2.6 0.1-0.2 1.5-1.5 1.5-1.5 0.3-0.3 0.5-0.8 0.5-1.2 0-0.5-0.2-0.9-0.5-1.2l-0.3-0.3c-0.4-0.3-0.8-0.5-1.2-0.5-0.5 0-0.9 0.2-1.2 0.5 0 0-1.4 1.3-1.6 1.5-0.7-0.4-1.5-0.8-2.3-1v-1.9c0-1-0.8-1.7-1.7-1.7h-0.5zm-4.4 5.1c0.9-0.6 1.9-1 3-1.2h0.2v-2.3c0-0.6 0.5-1.2 1.2-1.2h0.5c0.7 0 1.2 0.6 1.2 1.2v2.3l0.2 0.1c0.9 0.2 1.7 0.5 2.6 1.1l0.1 0.1 1.8-1.8c0.2-0.3 0.5-0.4 0.9-0.4 0.3 0 0.6 0.1 0.9 0.4l0.3 0.3c0.2 0.2 0.4 0.6 0.4 0.9s-0.2 0.6-0.4 0.9l-1.8 1.7 0.1 0.2c0.6 0.9 1 1.8 1.2 2.8l0.1 0.1h2.4c0.7 0 1.3 0.6 1.3 1.3v0.5c0 0.7-0.6 1.2-1.3 1.2h-2.4l-0.1 0.2c-0.2 1-0.5 2-1.1 2.8l-0.1 0.2 1.9 1.8c0.2 0.3 0.4 0.6 0.4 0.9 0 0.4-0.2 0.7-0.4 0.9l-0.3 0.3c-0.3 0.3-0.6 0.4-0.9 0.4s-0.7-0.1-0.9-0.4l-1.9-1.8-0.1 0.1c-0.8 0.5-1.7 0.9-2.7 1.1l-0.2 0.1v1.9c0 0.7-0.5 1.3-1.2 1.3h-0.5c-0.7 0-1.2-0.6-1.2-1.3v-1.9h-0.2c-1.1-0.2-2.1-0.6-3-1.3l-0.2-0.1-1.7 1.8c-0.5 0.5-1.3 0.5-1.8 0l-0.3-0.3c-0.5-0.5-0.5-1.3 0-1.8l1.7-1.8v-0.1c-0.6-0.9-1-1.9-1.2-2.8v-0.2h-2.5c-0.7 0-1.3-0.5-1.3-1.2v-0.5c0-0.7 0.6-1.3 1.3-1.3h2.5v-0.1c0.2-0.9 0.6-1.8 1.2-2.7l0.1-0.1-1.7-1.7c-0.2-0.2-0.4-0.5-0.4-0.9 0-0.3 0.2-0.6 0.4-0.9l0.3-0.3c0.5-0.5 1.3-0.5 1.8 0l1.6 1.6 0.2-0.1z" fill="#7c7d7f"/>
					<path id="path1218" d="m8994.5 8828.8c0 1.5 1.2 2.8 2.8 2.8 0.7 0 1.4-0.3 2-0.8 0.5-0.6 0.8-1.3 0.8-2 0-1.5-1.3-2.8-2.8-2.8-1.6 0-2.8 1.3-2.8 2.8zm0.4 0c0-1.3 1.1-2.4 2.4-2.4s2.4 1.1 2.4 2.4c0 0.6-0.3 1.2-0.7 1.7-0.5 0.4-1.1 0.7-1.7 0.7-1.3 0-2.4-1.1-2.4-2.4z" fill="#929496"/>
				</g>
				<g id="g1220">
					<polygon id="polygon1222" points="9003.7 8834.2 9004.1 8833.8 9005.8 8835.6 9005.8 8836.3" fill="#9c9d9f"/>
					<polygon id="polygon1224" points="8998.1 8836.6 8998.6 8836.7 8998.6 8839.1 8998.1 8839.6" fill="#9c9d9f"/>
					<polygon id="polygon1226" points="8991.8 8835 8992.2 8835.3 8990.4 8837 8989.7 8837.1" fill="#b1b2b4"/>
					<polygon id="polygon1228" points="8988.9 8829.4 8988.9 8830 8986.5 8829.9 8986 8829.4" fill="#d9dadb"/>
				</g>
				<path id="path1230" d="m9000.9 8828.6c0 2-1.6 3.6-3.6 3.6-0.9 0-1.7-0.3-2.3-0.8 0.7 0.9 1.7 1.4 2.8 1.4 2 0 3.6-1.6 3.6-3.6 0-1.2-0.5-2.2-1.3-2.8 0.5 0.6 0.8 1.4 0.8 2.2z" fill="#fff"/>
				<path id="path1232" d="m8990.9 8829.6c0-4 3.3-7.5 7.2-7.5 1.7 0 3.3 0.9 4.5 1.9-1.3-1.6-3.3-2.7-5.5-2.7-3.6 0-7.2 3.6-7.2 7.2 0 2.3 1.1 4.3 2.7 5.7-1-1.3-1.7-2.8-1.7-4.6z" fill="#fff"/>
				<g id="g1234" fill="#fff">
					<polygon id="polygon1236" points="8991.3 8823.5 8990.9 8823.8 8989.2 8822.1 8989.2 8821.4"/>
					<polygon id="polygon1238" points="8997.1 8820.9 8996.6 8820.9 8996.6 8818.4 8997.1 8817.9"/>
					<polygon id="polygon1240" points="9002.5 8822.8 9002.2 8822.4 9003.9 8820.7 9004.6 8820.7"/>
					<polygon id="polygon1242" points="9005.2 8828.3 9005.2 8827.8 9007.7 8827.8 9008.2 8828.3"/>
				</g>
			</g>
		</g>
	</g>
<g id="OUTLAND" display="none" transform="translate(44.606 -3424.8)">
	<path id="path1431" d="m18122 0v17875h-18122v-17875h18122zm-9482 9235.3h841.9v-595.3h-841.9v595.3z" display="inline" fill="#9e9994"/>
</g>
<metadata><rdf:RDF><cc:Work><dc:format>image/svg+xml</dc:format><dc:type rdf:resource="http://purl.org/dc/dcmitype/StillImage"/><cc:license rdf:resource="http://creativecommons.org/licenses/publicdomain/"/><dc:publisher><cc:Agent rdf:about="http://openclipart.org/"><dc:title>Openclipart</dc:title></cc:Agent></dc:publisher><dc:title>Users</dc:title><dc:date>2007-11-16T10:54:09</dc:date><dc:description>clip art, clipart, image, job, job, media, people, people, png, profession, profession, public domain, svg, user, user, work, work, </dc:description><dc:source>http://openclipart.org/detail/11067/users-by-sampler-11067</dc:source><dc:creator><cc:Agent><dc:title>sampler</dc:title></cc:Agent></dc:creator><dc:subject><rdf:Bag><rdf:li>clip art</rdf:li><rdf:li>clipart</rdf:li><rdf:li>image</rdf:li><rdf:li>job</rdf:li><rdf:li>media</rdf:li><rdf:li>people</rdf:li><rdf:li>png</rdf:li><rdf:li>profession</rdf:li><rdf:li>public domain</rdf:li><rdf:li>svg</rdf:li><rdf:li>user</rdf:li><rdf:li>work</rdf:li></rdf:Bag></dc:subject></cc:Work><cc:License rdf:about="http://creativecommons.org/licenses/publicdomain/"><cc:permits rdf:resource="http://creativecommons.org/ns#Reproduction"/><cc:permits rdf:resource="http://creativecommons.org/ns#Distribution"/><cc:permits rdf:resource="http://creativecommons.org/ns#DerivativeWorks"/></cc:License></rdf:RDF></metadata></svg>
