<?xml version="1.0"?>
<svg xmlns:rdf="http://www.w3.org/1999/02/22-rdf-syntax-ns#" xmlns="http://www.w3.org/2000/svg" xmlns:cc="http://creativecommons.org/ns#" xmlns:xlink="http://www.w3.org/1999/xlink" xmlns:dc="http://purl.org/dc/elements/1.1/" xmlns:svg="http://www.w3.org/2000/svg" id="svg2886" viewBox="0 0 105.68 139.4" version="1.0">
  <defs id="defs2888">
    <radialGradient id="radialGradient3221" gradientUnits="userSpaceOnUse" cy="332.53" cx="438.75" r="49.09">
      <stop id="stop3217" stop-color="#fca" offset="0"/>
      <stop id="stop3219" stop-color="#fa9351" offset="1"/>
    </radialGradient>
    <linearGradient id="linearGradient3229" x1="250.83" gradientUnits="userSpaceOnUse" y1="349.89" gradientTransform="translate(5.0737 1.6912)" x2="241" y2="317.9">
      <stop id="stop3225" stop-color="#665fd3" offset="0"/>
      <stop id="stop3227" stop-color="#5fbcd3" offset="1"/>
    </linearGradient>
    <radialGradient id="radialGradient3257" gradientUnits="userSpaceOnUse" cy="342.64" cx="213" gradientTransform="matrix(1.2142 -.33748 .23133 .83227 -119.81 129)" r="46.493">
      <stop id="stop3253" stop-color="#fff" offset="0"/>
      <stop id="stop3255" stop-color="#938f8f" offset="1"/>
    </radialGradient>
    <radialGradient id="radialGradient3269" gradientUnits="userSpaceOnUse" cy="259.7" cx="204.37" gradientTransform="matrix(.89226 -.58584 .47362 .72135 -95.907 194.79)" r="44.809">
      <stop id="stop3261" stop-color="#918a6f" offset="0"/>
      <stop id="stop3263" stop-color="#7a5a2d" offset="1"/>
    </radialGradient>
    <radialGradient id="radialGradient3281" gradientUnits="userSpaceOnUse" cy="54.748" cx="34.489" gradientTransform="matrix(1 0 0 1.0645 0 -3.5321)" r="7.4766">
      <stop id="stop3277" stop-color="#6e6e6e" offset="0"/>
      <stop id="stop3279" stop-color="#292929" offset="1"/>
    </radialGradient>
  </defs>
  <g id="layer1" transform="translate(-189.38 -230.07)">
    <g id="g3435">
      <path id="path7363" d="m235.04 290.84c-29.17 0.83-52.04 48.6-41.25 64.79 10.78 16.2 74.1 16.2 84.41 0 10.31-16.19-13.04-65.64-43.16-64.79z" fill-rule="evenodd" stroke="#383838" stroke-width="3.3755" fill="url(#radialGradient3257)"/>
      <path id="path7365" d="m237.23 320.15l6.89 7.16-3.89 23.09 16.97 9.77 6.35-15.48-12.06-18.56 2.55-9.7-16.81 3.72z" fill-rule="evenodd" stroke="#383838" stroke-width="3.0796" fill="url(#linearGradient3229)"/>
      <path id="path7367" d="m496.96 320.73a46.59 46.59 0 1 1 0 -0.38" fill-rule="evenodd" transform="matrix(-.77868 0 0 .86941 588.4 1.61)" stroke="#383838" stroke-width="5" fill="url(#radialGradient3221)"/>
      <path id="path7369" d="m216.59 263.07s13.91 12.29 29.5 11.34c15.61-0.97 31.22-6.54 31.22-6.54s0.87-35.56-40.2-36.11c-28.16-0.39-39.48 12.51-44.86 36.11-5.44 23.85 9.59 37.85 9.59 37.85s7.99-7.78 11.67-18.44c3.69-10.66 3.08-24.21 3.08-24.21z" fill-rule="evenodd" stroke="#383838" stroke-width="3.3659" fill="url(#radialGradient3269)"/>
      <path id="path8552" d="m278.64 327.17c8.91-1.94 14.91 1.42 14.91 8.49s-0.69 12.72-13.86 12.48c-12.24-0.22-12.12-7.84-12.12-14.92v-0.1c0.04-4.19 0.47-20.52 7.21-20.36 7.21 0.18 6.21 5.66 3.86 14.41z" fill-rule="evenodd" stroke="#383838" stroke-width="3" fill="#ffb07a"/>
      <path id="path3271" fill-rule="evenodd" fill="#fff" transform="matrix(1.0645 0 0 1 192.22 233.68)" d="m41.965 54.748a7.4766 7.959 0 1 1 0 -0.064"/>
      <path id="path3273" fill-rule="evenodd" fill="url(#radialGradient3281)" transform="matrix(.70968 0 0 .64470 207.11 253.31)" d="m41.965 54.748a7.4766 7.959 0 1 1 0 -0.064"/>
      <path id="path3283" fill-rule="evenodd" fill="#fff" transform="matrix(.25806 0 0 .24242 224.13 274.68)" d="m41.965 54.748a7.4766 7.959 0 1 1 0 -0.064"/>
      <path id="path3285" fill-rule="evenodd" fill="#fff" transform="matrix(1.0645 0 0 1 222.61 230.07)" d="m41.965 54.748a7.4766 7.959 0 1 1 0 -0.064"/>
      <path id="path3287" fill-rule="evenodd" fill="url(#radialGradient3281)" transform="matrix(.70968 0 0 .64470 237.5 249.69)" d="m41.965 54.748a7.4766 7.959 0 1 1 0 -0.064"/>
      <path id="path3289" fill-rule="evenodd" fill="#fff" transform="matrix(.25806 0 0 .24242 254.52 271.06)" d="m41.965 54.748a7.4766 7.959 0 1 1 0 -0.064"/>
      <path id="path3293" opacity=".84513" d="m41.965 54.748a7.4766 7.959 0 1 1 0 -0.064" fill-rule="evenodd" transform="matrix(.16129 0 0 .16667 224.33 281.84)" fill="#fff"/>
      <path id="path3295" opacity=".84513" d="m41.965 54.748a7.4766 7.959 0 1 1 0 -0.064" fill-rule="evenodd" transform="matrix(.16129 0 0 .16667 255.21 278.58)" fill="#fff"/>
      <path id="path3299" stroke="#383838" stroke-width="4" fill="none" d="m249.92 305.31c-7 12.06-20.75 1.21-20.75 1.21"/>
    </g>
  </g>
  <metadata>
    <rdf:RDF>
      <cc:Work>
        <dc:format>image/svg+xml</dc:format>
        <dc:type rdf:resource="http://purl.org/dc/dcmitype/StillImage"/>
        <cc:license rdf:resource="http://creativecommons.org/licenses/publicdomain/"/>
        <dc:publisher>
          <cc:Agent rdf:about="http://openclipart.org/">
            <dc:title>Openclipart</dc:title>
          </cc:Agent>
        </dc:publisher>
        <dc:title>people biz - male smile</dc:title>
        <dc:date>2009-03-11T09:15:12</dc:date>
        <dc:description>clip art, clipart, happy, happy, icon, icon, image, male, male, media, people, people, png, public domain, smile, smile, svg, </dc:description>
        <dc:source>http://openclipart.org/detail/22124/people-biz---male-smile-by-yyycatch-22124</dc:source>
        <dc:creator>
          <cc:Agent>
            <dc:title>yyycatch</dc:title>
          </cc:Agent>
        </dc:creator>
        <dc:subject>
          <rdf:Bag>
            <rdf:li>clip art</rdf:li>
            <rdf:li>clipart</rdf:li>
            <rdf:li>happy</rdf:li>
            <rdf:li>icon</rdf:li>
            <rdf:li>image</rdf:li>
            <rdf:li>male</rdf:li>
            <rdf:li>media</rdf:li>
            <rdf:li>people</rdf:li>
            <rdf:li>png</rdf:li>
            <rdf:li>public domain</rdf:li>
            <rdf:li>smile</rdf:li>
            <rdf:li>svg</rdf:li>
          </rdf:Bag>
        </dc:subject>
      </cc:Work>
      <cc:License rdf:about="http://creativecommons.org/licenses/publicdomain/">
        <cc:permits rdf:resource="http://creativecommons.org/ns#Reproduction"/>
        <cc:permits rdf:resource="http://creativecommons.org/ns#Distribution"/>
        <cc:permits rdf:resource="http://creativecommons.org/ns#DerivativeWorks"/>
      </cc:License>
    </rdf:RDF>
  </metadata>
</svg>
