<?xml version="1.0" encoding="utf-8"?>
<!-- Generator: Adobe Illustrator 21.1.0, SVG Export Plug-In . SVG Version: 6.00 Build 0)  -->
<svg version="1.1" id="Layer_1" xmlns="http://www.w3.org/2000/svg" xmlns:xlink="http://www.w3.org/1999/xlink" x="0px" y="0px"
	 viewBox="0 0 250 100" style="enable-background:new 0 0 250 100;" xml:space="preserve">
<style type="text/css">
	.st0{fill:#323337;}
	.st1{fill:#D84545;}
</style>
<g>
	<path class="st0" d="M161.6,23.1c-7.8,9.5-15.6,19-23.3,28.5c-2.9,3.5-3.5,8.4,0,11.9c3,3,9,3.6,11.9,0c7.8-9.5,15.6-19,23.3-28.5
		c2.9-3.5,3.5-8.4,0-11.9C170.5,20.1,164.6,19.5,161.6,23.1z"/>
	<path class="st0" d="M137.6,23.1c-3-3-9-3.6-11.9,0c-5.1,6.2-10.2,12.5-15.3,18.7c-2.1-4.9-4.3-9.7-6.5-14.6
		c-0.3-1.3-0.8-2.5-1.8-3.7c-1.1-1.4-2.8-2.3-4.6-2.7c-2.4-0.5-4.9-0.2-6.8,1.3c-1.1,0.8-1.9,1.7-2.5,2.8
		c-4.6,5.6-9.2,11.2-13.8,16.8c-2.2-4.9-4.3-9.8-6.5-14.7c-0.2-1.2-0.8-2.4-1.7-3.5c-1.1-1.5-2.9-2.5-4.8-2.8
		c-2.5-0.6-5.3-0.1-7.1,1.6c-0.9,0.7-1.6,1.6-2.1,2.6c-15.3,19.2-30.6,38.4-46,57.5c0,0,0,0-0.1,0.1c-2.9,3.6-3.5,8.4,0,11.9
		c3,3,9,3.6,11.9,0c13.2-16.5,26.3-32.9,39.4-49.4c2.5,5.5,4.9,11.1,7.4,16.6c1.1,2.5,3.7,3.8,6.4,4.1c2.6,0.4,5.3-0.3,6.9-2.4
		c5-6.2,10.1-12.3,15.1-18.5c2.5,5.6,4.9,11.2,7.4,16.8c1.1,2.5,3.8,3.9,6.5,4.1c2.6,0.4,5.2-0.3,6.9-2.4c7.8-9.5,15.6-19,23.3-28.5
		C140.5,31.4,141.1,26.5,137.6,23.1z"/>
	<ellipse class="st0" cx="181.8" cy="11.4" rx="8.4" ry="8.4"/>
	<path class="st0" d="M93.5,67.1c-4.6,0-8.4,3.7-8.4,8.4c0,2.1,0.8,4.1,2.1,5.6c-1.2-0.6-2.5-1-3.9-1c-4.6,0-8.4,3.7-8.4,8.4
		c0,4.6,3.7,8.4,8.4,8.4c4.6,0,8.4-3.7,8.4-8.4c0-2.1-0.8-4.1-2.1-5.6c1.2,0.6,2.5,1,3.9,1c4.6,0,8.4-3.7,8.4-8.4
		C101.8,70.9,98.1,67.1,93.5,67.1z"/>
	<path class="st0" d="M14.9,56.8c4.6,0,8.4-3.7,8.4-8.4c0-2.1-0.8-4.1-2.1-5.6c1.2,0.6,2.5,1,3.9,1c4.6,0,8.4-3.7,8.4-8.4
		c0-4.6-3.7-8.4-8.4-8.4c-4.6,0-8.4,3.7-8.4,8.4c0,2.1,0.8,4.1,2.1,5.6c-1.2-0.6-2.5-1-3.9-1c-4.6,0-8.4,3.7-8.4,8.4
		C6.6,53,10.3,56.8,14.9,56.8z"/>
	<circle class="st0" cx="110.2" cy="11.4" r="8.4"/>
</g>
<g>
	<path class="st1" d="M127.8,96.5h-15.7c-1,0-2-0.6-2.3-1.5c-0.4-0.9-0.2-2,0.5-2.8l11.6-12h-9.7c-1.4,0-2.6-1.1-2.6-2.6
		c0-1.4,1.2-2.6,2.6-2.6h15.7c1,0,2,0.6,2.3,1.6c0.4,0.9,0.2,2-0.5,2.7l-11.6,12.1h9.7c1.4,0,2.6,1.2,2.6,2.6
		C130.4,95.4,129.2,96.5,127.8,96.5z"/>
	<path class="st1" d="M150.7,87.1h-13.2c0.6,2.4,2.8,4.3,5.4,4.3c1.4,0,3.4-0.6,4.5-1.6c1-1,2.6-1,3.6,0c1,1,1,2.7,0,3.6
		c-2.3,2.3-5.6,3-8.1,3c-5.9,0-10.7-4.8-10.7-10.7c0-5.9,4.7-10.7,10.7-10.7c0.6,0,1.2,0,1.9,0.2c2.9,0.6,5.4,2.4,6.9,4.9
		c0.7,1.2,1.5,2.8,1.4,4.2c0,0.4-0.2,0.8-0.3,1.2C152.5,86.4,151.8,87.1,150.7,87.1z M138.3,82.8h9.1c-0.9-1.6-2.4-2.6-4.4-2.6
		C141,80.2,139.3,81.2,138.3,82.8z"/>
	<path class="st1" d="M172.9,87.1h-13.2c0.6,2.4,2.8,4.3,5.4,4.3c1.4,0,3.4-0.6,4.5-1.6c1-1,2.6-1,3.6,0c1,1,1,2.7,0,3.6
		c-2.3,2.3-5.6,3-8.1,3c-5.9,0-10.7-4.8-10.7-10.7c0-5.9,4.7-10.7,10.7-10.7c0.6,0,1.2,0,1.9,0.2c2.9,0.6,5.4,2.4,6.9,4.9
		c0.7,1.2,1.5,2.8,1.4,4.2c0,0.4-0.2,0.8-0.3,1.2C174.6,86.4,173.9,87.1,172.9,87.1z M160.4,82.8h9.1c-0.9-1.6-2.4-2.6-4.4-2.6
		C163.2,80.2,161.4,81.2,160.4,82.8z"/>
	<path class="st1" d="M197.8,85.7v8.1c0,1.4-1.1,2.6-2.5,2.6c-1.4,0-2.6-1.2-2.6-2.6v-8.1c0-3-2.2-5.5-4.9-5.5c-3.3,0-5,3.3-5,6.3
		v7.3c0,1.4-1.2,2.6-2.6,2.6c-1.4,0-2.6-1.2-2.6-2.6V77.4c0-1.4,1.2-2.6,2.6-2.6c1.1,0,2,0.7,2.4,1.8c1.5-1,3.3-1.5,5.2-1.5
		C193.3,75.1,197.8,79.8,197.8,85.7z"/>
	<path class="st1" d="M221.8,77.5v16.4c0,1.3-1.1,2.4-2.5,2.4c-1.4,0-2.3-1.1-2.3-2.4v-0.5c-1.8,1.6-4,2.5-6.5,2.5
		c-5.7,0-10.3-4.6-10.3-10.3c0-5.7,4.6-10.3,10.3-10.3c2.6,0,4.7,1,6.5,2.5v-0.2c0-1.3,0.9-2.4,2.3-2.4
		C220.7,75,221.8,76.1,221.8,77.5z M215.8,85.5c0-2.9-2.4-5.3-5.3-5.3c-2.9,0-5.4,2.4-5.4,5.3c0,2.9,2.4,5.3,5.4,5.3
		C213.4,90.8,215.8,88.5,215.8,85.5z"/>
	<path class="st1" d="M245,94c0,1.4-1.2,2.6-2.6,2.6c-1.5,0-2.6-1.2-2.6-2.6v-9.4c0-2.4-2-4.4-4.4-4.4c-2.4,0-4.4,2-4.4,4.4V94
		c0,1.4-1.1,2.6-2.6,2.6c-1.4,0-2.6-1.2-2.6-2.6V66.7c0-1.4,1.2-2.6,2.6-2.6c1.5,0,2.6,1.2,2.6,2.6v9.4c1.3-0.7,2.8-1.1,4.4-1.1
		c5.3,0,9.6,4.3,9.6,9.6V94z"/>
</g>
</svg>
